<svg xmlns="http://www.w3.org/2000/svg" width="1443.162" height="898.921" viewBox="0 0 1443.162 898.921">
  <g id="Group_42" data-name="Group 42" transform="translate(-477.339 -320.079)">
    <path id="Subtraction_6" data-name="Subtraction 6" d="M-1222.375,1219H-2665.536l869.39-541.527c-.615-.578-.993-.911-1.053-.962a7.216,7.216,0,0,1-2.354-3.944,7.09,7.09,0,0,1,.5-4.54l89.343-191.888c-10.473-.247-21.428-.916-32.558-1.985-12.17-1.173-23.927-1.768-34.944-1.768-47.755,0-84.584,11.036-109.463,32.8a95.859,95.859,0,0,0-20.805,25.736h21.374v76.052h-77.754V530.921h42.923a107.657,107.657,0,0,1,26.114-34.26,122.363,122.363,0,0,1,22.681-15.692,149.179,149.179,0,0,1,27.224-11.235,198.737,198.737,0,0,1,31.7-6.756,275.417,275.417,0,0,1,36.094-2.256c11.385,0,23.508.611,36.032,1.817,11.91,1.144,23.578,1.817,34.679,2L-1812.4,392.928a14.672,14.672,0,0,1-10.046,3.937,14.614,14.614,0,0,1-10.3-4.172,14.018,14.018,0,0,1-4.255-10.08,14.016,14.016,0,0,1,4.259-10.077,14.615,14.615,0,0,1,10.293-4.175,14.631,14.631,0,0,1,10.3,4.171,14.007,14.007,0,0,1,4.268,10.081,13.945,13.945,0,0,1-2.712,8.281l109.065,73.692,1.363,0c27.789,0,52.766-3.126,74.237-9.291,21.531-6.183,39.617-15.444,53.754-27.528a100.24,100.24,0,0,0,26.717-35.188h-21.483V338.293h55.5v54.289h-21.128a110.906,110.906,0,0,1-31.767,43.973,134.164,134.164,0,0,1-23.349,15.9,169.836,169.836,0,0,1-28.022,11.9,224.746,224.746,0,0,1-32.441,7.84,300.348,300.348,0,0,1-36.607,3.728l101.778,68.769-2.507,1.561,11.948,8.072a14.02,14.02,0,0,0-1.851,6.953,14.417,14.417,0,0,0,14.552,14.243,14.427,14.427,0,0,0,14.573-14.243,14.422,14.422,0,0,0-14.573-14.232,14.665,14.665,0,0,0-11.144,5.077l-11-7.431,360.6-224.612V1219Zm-575.068-415.049V846.44h195.276V803.951h-53.6c0-.04,0-.079,0-.119a181.236,181.236,0,0,1,2.256-28.555,178.541,178.541,0,0,1,5.951-25.224,182.527,182.527,0,0,1,18.093-39.9,177.769,177.769,0,0,1,18.19-24.895,107.336,107.336,0,0,1,8.5-8.771,7.205,7.205,0,0,0,2.362-3.94,7.088,7.088,0,0,0-.51-4.544l-40.516-86.9,55.96-34.856-103.842-70.164-1.069.031,48.951,104.99-12.7,7.908L-1694.1,503.3v110.6l39.961-24.89,37.467,80.364a183.036,183.036,0,0,0-31.966,44.188,193.239,193.239,0,0,0-15.455,39.633,193.628,193.628,0,0,0-4.8,23.981,200.224,200.224,0,0,0-1.776,26.671c0,.032,0,.066,0,.1h-58.65c0-.032,0-.066,0-.1a200.131,200.131,0,0,0-1.771-26.635,193.66,193.66,0,0,0-4.783-23.951,193.175,193.175,0,0,0-15.419-39.6,182.892,182.892,0,0,0-31.964-44.23l-12.9,8.033c3.7,3.478,16.708,16.5,28.766,37.934a181.1,181.1,0,0,1,16.1,38.313,178.628,178.628,0,0,1,5.14,23.639,182.551,182.551,0,0,1,1.925,26.5c0,.032,0,.066,0,.1Zm91.431-182.623v25.7a23.092,23.092,0,0,0-17.547,22.25c0,12.675,10.544,22.987,23.5,22.987s23.515-10.312,23.515-22.987a23.1,23.1,0,0,0-17.557-22.25V613.906l-11.915,7.422V503.361l-77.3,166.019.034.033.025.025Z" transform="translate(3142.875)" fill="#264653"/>
    <text id="_2025" data-name="2025" transform="translate(1264 1083)" fill="#fff" font-size="189" font-family="Roboto-Bold, Roboto" font-weight="700" letter-spacing="-0.08em" opacity="0.06"><tspan x="0" y="0">2025</tspan></text>
  </g>
</svg>
