<svg xmlns="http://www.w3.org/2000/svg" width="111.251" height="102.892" viewBox="0 0 111.251 102.892">
  <path id="Subtraction_4" data-name="Subtraction 4" d="M224.2,228.511H182.826V193.142a155.2,155.2,0,0,1,1.715-24.758c1.138-6.9,2.869-12.56,5.145-16.827A54.61,54.61,0,0,1,201.315,136.5a64.089,64.089,0,0,1,16.88-10.879l9.431,15.006c-7.821,3.27-13.663,8.209-17.363,14.683s-5.789,16.027-6.216,28.4H224.2v44.8Zm66.45,0h-41.37V193.142a155.234,155.234,0,0,1,1.715-24.758c1.138-6.9,2.869-12.56,5.144-16.827A54.61,54.61,0,0,1,267.764,136.5a64.089,64.089,0,0,1,16.88-10.879l9.432,15.006c-7.823,3.27-13.664,8.21-17.363,14.683s-5.79,16.029-6.216,28.4h20.149v44.8Z" transform="translate(-182.826 -125.619)" fill="#fafafa" opacity="0.25"/>
</svg>
