<svg id="Layer_x0020_1" xmlns="http://www.w3.org/2000/svg" width="171.694" height="103.618" viewBox="0 0 171.694 103.618">
  <g id="_2205180686576" transform="translate(0 0)">
    <path id="Path_8" data-name="Path 8" d="M1212.08,0l-.02,77.73h.02Zm.433,77.755h23.313V15.287h.186L1266.464,39.1l30.452-23.816h.417l-.092,57.432-26.412-20.082h-19.091l-.006,25.035h18.385l-.027-20.111h.135l27.011,20.194H1320.9L1320.9,0h-25.857l-28.574,20.966L1237.889,0h-2.211V.026h-23.165V4.35h5.141a1.7,1.7,0,0,1,1.529,1.821,1.7,1.7,0,0,1-1.529,1.821h-5.141v7.066h11.057a1.7,1.7,0,0,1,1.53,1.822,1.7,1.7,0,0,1-1.53,1.821h-11.057v7.285h5.141a1.7,1.7,0,0,1,1.529,1.822,2,2,0,0,1-.448,1.288,1.415,1.415,0,0,1-1.082.533h-5.141v7.115h11.057a1.849,1.849,0,0,1,0,3.643h-11.057v7.285h5.141a1.849,1.849,0,0,1,0,3.643h-5.141v6.9h11.057a1.849,1.849,0,0,1,0,3.643h-11.057v7.285h5.141a1.849,1.849,0,0,1,0,3.643h-5.141v4.976Z" transform="translate(-1180.635 0)" fill="#fefefe"/>
    <path id="Path_9" data-name="Path 9" d="M7.262,3468.513a7.857,7.857,0,0,1-2.9-.52,6.785,6.785,0,0,1-2.3-1.472,6.914,6.914,0,0,1-1.521-2.228,7.443,7.443,0,0,1,0-5.613,6.833,6.833,0,0,1,3.837-3.7,7.857,7.857,0,0,1,2.9-.52,7.8,7.8,0,0,1,2.934.54,6.013,6.013,0,0,1,2.287,1.6l-1.276,1.237a5.1,5.1,0,0,0-1.766-1.227,5.48,5.48,0,0,0-2.1-.4,5.776,5.776,0,0,0-2.149.393,5.148,5.148,0,0,0-1.717,1.1,4.962,4.962,0,0,0-1.129,1.678,5.734,5.734,0,0,0,0,4.22,4.969,4.969,0,0,0,1.129,1.678,5.155,5.155,0,0,0,1.717,1.1,5.785,5.785,0,0,0,2.149.393,5.475,5.475,0,0,0,2.1-.4,4.988,4.988,0,0,0,1.766-1.246l1.276,1.237a6.109,6.109,0,0,1-2.287,1.609,7.734,7.734,0,0,1-2.954.55Z" transform="translate(0 -3364.895)" fill="#fefefe"/>
    <path id="_1" d="M543.242,3468.494a7.823,7.823,0,0,1-2.9-.53,6.97,6.97,0,0,1-2.326-1.482,6.71,6.71,0,0,1-1.521-2.228,7.22,7.22,0,0,1,0-5.574,6.644,6.644,0,0,1,1.531-2.228,7.126,7.126,0,0,1,2.316-1.482,8.222,8.222,0,0,1,5.81,0,7.207,7.207,0,0,1,2.316,1.472A6.519,6.519,0,0,1,550,3458.67a7.543,7.543,0,0,1,0,5.6,6.542,6.542,0,0,1-1.531,2.218,7.215,7.215,0,0,1-2.316,1.472,7.785,7.785,0,0,1-2.915.53Zm0-1.747a5.638,5.638,0,0,0,2.13-.392,5.022,5.022,0,0,0,1.688-1.109,5.169,5.169,0,0,0,1.119-1.678,5.385,5.385,0,0,0,.4-2.1,5.5,5.5,0,0,0-.393-2.1,4.97,4.97,0,0,0-1.119-1.678,5.121,5.121,0,0,0-1.7-1.109,5.943,5.943,0,0,0-4.25,0,4.991,4.991,0,0,0-1.7,1.109,5.2,5.2,0,0,0-1.119,1.668,5.708,5.708,0,0,0,0,4.21,5.1,5.1,0,0,0,2.827,2.788,5.585,5.585,0,0,0,2.11.392Z" transform="translate(-522.044 -3364.876)" fill="#fefefe"/>
    <path id="_2" d="M1237.68,3474.239V3460.5h1.61l9.087,11.286h-.844V3460.5h1.963v13.739h-1.609l-9.088-11.286h.844v11.286Z" transform="translate(-1205.59 -3370.778)" fill="#fefefe"/>
    <path id="_3" d="M1831.88,3468.483a9.369,9.369,0,0,1-3-.481,6.153,6.153,0,0,1-2.257-1.246l.726-1.531a6.372,6.372,0,0,0,2,1.138,7.221,7.221,0,0,0,2.532.451,5.727,5.727,0,0,0,1.943-.275,2.3,2.3,0,0,0,1.1-.756,1.794,1.794,0,0,0,.353-1.09,1.485,1.485,0,0,0-.461-1.138,3.424,3.424,0,0,0-1.2-.7,13.292,13.292,0,0,0-1.619-.461q-.883-.2-1.776-.461a7.939,7.939,0,0,1-1.629-.677,3.334,3.334,0,0,1-1.187-1.109,3.248,3.248,0,0,1-.452-1.8,3.606,3.606,0,0,1,.56-1.953,3.882,3.882,0,0,1,1.727-1.433,7.1,7.1,0,0,1,2.974-.54,9.174,9.174,0,0,1,2.375.314,6.625,6.625,0,0,1,2.042.9l-.648,1.57a6.317,6.317,0,0,0-1.865-.854,7.308,7.308,0,0,0-1.9-.265,5.243,5.243,0,0,0-1.9.294,2.325,2.325,0,0,0-1.089.785,1.874,1.874,0,0,0-.344,1.1,1.51,1.51,0,0,0,.461,1.158,3.317,3.317,0,0,0,1.2.687,16.194,16.194,0,0,0,1.619.461q.883.206,1.776.461a7.574,7.574,0,0,1,1.629.667,3.363,3.363,0,0,1,1.188,1.1,3.158,3.158,0,0,1,.451,1.766,3.531,3.531,0,0,1-.569,1.933,3.939,3.939,0,0,1-1.757,1.433,7.25,7.25,0,0,1-2.993.54Z" transform="translate(-1779.261 -3364.865)" fill="#fefefe"/>
    <path id="_4" d="M2288.541,3474.239v-12.031l-4.71-.02V3460.5h11.345l.02,1.708-4.711-.02v12.051Z" transform="translate(-2224.616 -3370.778)" fill="#fefefe"/>
    <path id="_5" d="M2827.35,3474.239V3460.5h5.358a6.4,6.4,0,0,1,4.2,1.266,4.321,4.321,0,0,1,1.531,3.523,4.642,4.642,0,0,1-.687,2.562,4.392,4.392,0,0,1-1.963,1.639,7.545,7.545,0,0,1-3.082.569h-4.279l.883-.9v5.083h-1.963Zm9.186,0-3.494-4.985h2.1l3.533,4.985Zm-7.223-4.887-.884-.962h4.22a4.344,4.344,0,0,0,2.856-.815,2.819,2.819,0,0,0,.972-2.286,2.79,2.79,0,0,0-.972-2.277,4.385,4.385,0,0,0-2.856-.8h-4.22l.884-.982Z" transform="translate(-2754.044 -3370.778)" fill="#fefefe"/>
    <path id="_6" d="M3401.65,3474.4a5.754,5.754,0,0,1-4.259-1.551,6.144,6.144,0,0,1-1.551-4.534V3460.5h1.962v7.733a4.734,4.734,0,0,0,1.011,3.356,4.4,4.4,0,0,0,5.731,0,4.734,4.734,0,0,0,1.011-3.356V3460.5h1.9v7.812a6.166,6.166,0,0,1-1.541,4.534A5.748,5.748,0,0,1,3401.65,3474.4Z" transform="translate(-3307.795 -3370.778)" fill="#fefefe"/>
    <path id="_7" d="M3985.992,3468.513a7.857,7.857,0,0,1-2.9-.52,6.785,6.785,0,0,1-2.3-1.472,6.906,6.906,0,0,1-1.521-2.228,7.441,7.441,0,0,1,0-5.613,6.833,6.833,0,0,1,3.837-3.7,8.284,8.284,0,0,1,5.83.02,6.014,6.014,0,0,1,2.287,1.6l-1.276,1.237a5.1,5.1,0,0,0-1.767-1.227,5.478,5.478,0,0,0-2.1-.4,5.777,5.777,0,0,0-2.149.393,5.147,5.147,0,0,0-1.718,1.1,4.964,4.964,0,0,0-1.129,1.678,5.734,5.734,0,0,0,0,4.22,4.972,4.972,0,0,0,1.129,1.678,5.154,5.154,0,0,0,1.718,1.1,5.786,5.786,0,0,0,2.149.393,5.473,5.473,0,0,0,2.1-.4,4.987,4.987,0,0,0,1.767-1.246l1.276,1.237a6.11,6.11,0,0,1-2.287,1.609,7.736,7.736,0,0,1-2.954.55Z" transform="translate(-3875.573 -3364.895)" fill="#fefefe"/>
    <path id="_8" d="M4499.7,3474.239v-12.031l-4.71-.02V3460.5h11.345l.02,1.708-4.71-.02v12.051Z" transform="translate(-4378.447 -3370.778)" fill="#fefefe"/>
    <path id="_9" d="M4995.081,3468.494a7.826,7.826,0,0,1-2.9-.53,6.967,6.967,0,0,1-2.325-1.482,6.707,6.707,0,0,1-1.521-2.228,7.214,7.214,0,0,1,0-5.574,6.647,6.647,0,0,1,1.53-2.228,7.135,7.135,0,0,1,2.316-1.482,8.222,8.222,0,0,1,5.81,0,7.2,7.2,0,0,1,2.315,1.472,6.534,6.534,0,0,1,1.532,2.227,7.552,7.552,0,0,1,0,5.6,6.557,6.557,0,0,1-1.532,2.218,7.211,7.211,0,0,1-2.315,1.472,7.791,7.791,0,0,1-2.916.53Zm0-1.747a5.632,5.632,0,0,0,2.129-.392,5.011,5.011,0,0,0,1.688-1.109,5.172,5.172,0,0,0,1.119-1.678,5.39,5.39,0,0,0,.4-2.1,5.5,5.5,0,0,0-.392-2.1,4.968,4.968,0,0,0-1.119-1.678,5.107,5.107,0,0,0-1.7-1.109,5.943,5.943,0,0,0-4.25,0,4.985,4.985,0,0,0-1.7,1.109,5.2,5.2,0,0,0-1.119,1.668,5.7,5.7,0,0,0,0,4.21,5.093,5.093,0,0,0,2.827,2.788,5.583,5.583,0,0,0,2.11.392Z" transform="translate(-4858.459 -3364.876)" fill="#fefefe"/>
    <path id="_10" d="M5689.52,3474.239V3460.5h5.358a6.4,6.4,0,0,1,4.2,1.266,4.322,4.322,0,0,1,1.531,3.523,4.64,4.64,0,0,1-.687,2.562,4.392,4.392,0,0,1-1.962,1.639,7.547,7.547,0,0,1-3.082.569H5690.6l.884-.9v5.083h-1.963Zm9.186,0-3.494-4.985h2.1l3.532,4.985Zm-7.223-4.887-.883-.962h4.22a4.341,4.341,0,0,0,2.855-.815,3.163,3.163,0,0,0,0-4.563,4.382,4.382,0,0,0-2.855-.8h-4.22l.883-.982Z" transform="translate(-5542.006 -3370.778)" fill="#fefefe"/>
    <path id="_11" d="M6219.381,3468.483a9.375,9.375,0,0,1-3-.481,6.155,6.155,0,0,1-2.256-1.246l.726-1.531a6.367,6.367,0,0,0,2,1.138,7.217,7.217,0,0,0,2.532.451,5.723,5.723,0,0,0,1.943-.275,2.307,2.307,0,0,0,1.1-.756,1.8,1.8,0,0,0,.353-1.09,1.486,1.486,0,0,0-.461-1.138,3.428,3.428,0,0,0-1.2-.7,13.321,13.321,0,0,0-1.619-.461q-.883-.2-1.776-.461a7.956,7.956,0,0,1-1.629-.677,3.339,3.339,0,0,1-1.187-1.109,3.254,3.254,0,0,1-.451-1.8,3.607,3.607,0,0,1,.56-1.953,3.88,3.88,0,0,1,1.726-1.433,7.108,7.108,0,0,1,2.974-.54,9.172,9.172,0,0,1,2.375.314,6.626,6.626,0,0,1,2.042.9l-.647,1.57a6.322,6.322,0,0,0-1.865-.854,7.31,7.31,0,0,0-1.9-.265,5.24,5.24,0,0,0-1.9.294,2.328,2.328,0,0,0-1.09.785,1.873,1.873,0,0,0-.343,1.1,1.51,1.51,0,0,0,.461,1.158,3.311,3.311,0,0,0,1.2.687,16.164,16.164,0,0,0,1.62.461q.883.206,1.775.461a7.562,7.562,0,0,1,1.63.667,3.36,3.36,0,0,1,1.188,1.1,3.161,3.161,0,0,1,.451,1.766,3.533,3.533,0,0,1-.568,1.933,3.942,3.942,0,0,1-1.757,1.433,7.253,7.253,0,0,1-2.994.54Z" transform="translate(-6053.005 -3364.865)" fill="#fefefe"/>
  </g>
</svg>
