<svg version="1.1" xmlns="http://www.w3.org/2000/svg" width="512px" height="512px" transform="rotate(0) scale(1, 1)">
<path d="M0 0 C0.6501709 0.33741211 1.3003418 0.67482422 1.97021484 1.02246094 C45.00846945 23.85591853 45.00846945 23.85591853 49.1875 35 C50.44954167 40.6983321 50.33568813 46.35227715 50.33467102 52.1567688 C50.33834771 53.28457256 50.3420244 54.41237633 50.3458125 55.57435596 C50.35683083 59.3557276 50.36069005 63.13707175 50.36450195 66.91845703 C50.37023813 69.62890354 50.37740234 72.33934596 50.38441467 75.04978943 C50.40414066 83.18386007 50.41423967 91.31793189 50.42314246 99.45202047 C50.42753107 103.28682016 50.43289633 107.12161847 50.43813133 110.95641708 C50.45513856 123.71093776 50.46963203 136.4654576 50.47688007 149.21998787 C50.47878981 152.52686692 50.48071017 155.83374597 50.48266602 159.140625 C50.48314976 159.96248456 50.4836335 160.78434411 50.4841319 161.63110851 C50.49242975 174.94047458 50.51776479 188.24975071 50.55024669 201.55907752 C50.58335491 215.23699731 50.60133217 228.91487143 50.60452431 242.59283149 C50.60668576 250.26706455 50.6153809 257.94116637 50.64098549 265.61536026 C50.66274386 272.15164879 50.67071771 278.68777418 50.66101871 285.22409482 C50.65648888 288.55536455 50.66048614 291.88602647 50.67778015 295.21729469 C50.69552516 298.8389205 50.68837892 302.45970218 50.67524719 306.08132935 C50.69170106 307.63944814 50.69170106 307.63944814 50.70848733 309.22904408 C50.57686665 324.33919747 43.81588169 337.91600535 33.5078125 348.734375 C26.28518878 355.78676854 18.16599971 360.36724005 9.36328125 365.15234375 C3.78043066 368.19860799 -1.70376494 371.40460856 -7.1875 374.625 C-16.02954044 379.80875555 -24.90664118 384.92702699 -33.8125 390 C-42.50668741 394.95348205 -51.17753119 399.94369473 -59.8125 405 C-68.44747557 410.05630923 -77.11856319 415.04607122 -85.8125 420 C-95.53374506 425.53985933 -105.22144868 431.13374932 -114.87939453 436.78344727 C-125.40334625 442.93766742 -135.96630137 449.02369996 -146.53027344 455.10888672 C-150.87844754 457.61416466 -155.22522018 460.12186603 -159.5715332 462.63037109 C-161.72049228 463.87004933 -163.87006289 465.10866813 -166.02026367 466.34619141 C-171.0824839 469.26116383 -176.13844642 472.18561363 -181.17428589 475.14590454 C-183.54334402 476.53771869 -185.91570233 477.92385227 -188.28833008 479.30957031 C-189.95392569 480.28550339 -191.61473359 481.26959313 -193.27539062 482.25390625 C-200.76081906 486.62080172 -206.91418145 489.78055426 -215.8125 489 C-222.87043641 486.76786866 -228.91459081 483.22045961 -235.25 479.4375 C-237.38137529 478.17425114 -239.51288657 476.91123172 -241.64453125 475.6484375 C-242.68818848 475.02807617 -243.7318457 474.40771484 -244.80712891 473.76855469 C-247.504788 472.18107764 -250.21848625 470.63120572 -252.94921875 469.1015625 C-253.71500244 468.66787354 -254.48078613 468.23418457 -255.26977539 467.78735352 C-256.66038403 467.00160247 -258.05632377 466.22517041 -259.45874023 465.46069336 C-265.58901035 461.95711708 -270.84846614 456.96339277 -272.8125 450 C-274.04983705 444.30344214 -273.96069096 438.6803371 -273.95967102 432.88119507 C-273.96334771 431.75747486 -273.9670244 430.63375465 -273.9708125 429.47598231 C-273.98183053 425.70843018 -273.98568999 421.94090566 -273.98950195 418.17333984 C-273.99576798 415.47274615 -274.00240237 412.77215537 -274.00941467 410.07156372 C-274.0291404 401.96715594 -274.03923963 393.86274699 -274.04814246 385.75832123 C-274.05253111 381.93746831 -274.05789637 378.11661676 -274.06313133 374.29576492 C-274.08013853 361.5875674 -274.09463199 348.87937071 -274.10188007 336.17116356 C-274.10378981 332.87631606 -274.10571017 329.58146857 -274.10766602 326.28662109 C-274.10814976 325.46775215 -274.1086335 324.64888321 -274.1091319 323.80520006 C-274.11742971 310.54433278 -274.14276469 297.28355577 -274.17524669 284.02272789 C-274.2083553 270.39452864 -274.2263322 256.76637522 -274.22952431 243.13813555 C-274.23168572 235.49184797 -274.24038034 227.8456921 -274.26598549 220.19944382 C-274.28774439 213.6869437 -274.29571746 207.17460732 -274.28601871 200.66207497 C-274.28148903 197.3429561 -274.28548547 194.02444725 -274.30278015 190.7053299 C-274.32052616 187.09684028 -274.31337845 183.48919778 -274.30024719 179.88070679 C-274.31121644 178.84585187 -274.32218568 177.81099696 -274.33348733 176.74478281 C-274.21324379 162.9895464 -268.07944416 147.6578446 -258.54296875 137.58203125 C-249.78914992 129.57910433 -239.32844027 124.21119968 -229.03125 118.48046875 C-223.0148305 115.12913507 -217.06412514 111.67354048 -211.125 108.1875 C-202.3867299 103.06706719 -193.61242879 98.01338663 -184.8125 93 C-176.1183984 88.04636501 -167.44747112 83.05630662 -158.8125 78 C-149.58449471 72.5964354 -140.3125533 67.27347639 -131.02148438 61.97949219 C-122.92505867 57.36497196 -114.85443491 52.70904745 -106.8125 48 C-97.58683102 42.59780346 -88.31727684 37.27611932 -79.02853394 31.98352051 C-70.78383454 27.28454966 -62.56615087 22.54189326 -54.375 17.75 C-51.47707202 16.05827827 -48.57889079 14.36699111 -45.68066406 12.67578125 C-43.73618217 11.53967947 -41.79285776 10.40159473 -39.85058594 9.26171875 C-36.98797248 7.58373296 -34.11968292 5.91585916 -31.25 4.25 C-30.39929932 3.74823242 -29.54859863 3.24646484 -28.67211914 2.72949219 C-18.89524246 -2.91801432 -10.35787163 -5.39399824 0 0 Z M-21.25 11.125 C-21.88139893 11.47626953 -22.51279785 11.82753906 -23.16333008 12.18945312 C-25.39163171 13.43980274 -27.60286509 14.71695685 -29.8125 16 C-30.66521484 16.49338867 -31.51792969 16.98677734 -32.39648438 17.49511719 C-37.35018196 20.36685148 -42.29234083 23.25784166 -47.23046875 26.15625 C-54.06099456 30.15741202 -60.93374436 34.08269624 -67.8125 38 C-77.53412217 43.53918939 -87.22145758 49.13375452 -96.87939453 54.78344727 C-107.40334625 60.93766742 -117.96630137 67.02369996 -128.53027344 73.10888672 C-133.95909942 76.23680148 -139.38569281 79.36858448 -144.8125 82.5 C-146.97915583 83.75001879 -149.1458225 85.00001878 -151.3125 86.25 C-152.385 86.86875 -153.4575 87.4875 -154.5625 88.125 C-190.3125 108.75 -190.3125 108.75 -193.56616211 110.62695312 C-195.72080624 111.870123 -197.87526757 113.11360975 -200.02954102 114.35742188 C-205.04004121 117.24983147 -210.05212635 120.13935227 -215.07113647 123.01696777 C-216.82978749 124.02548314 -218.58783209 125.0350477 -220.34570312 126.04492188 C-222.53722231 127.30350518 -224.72984504 128.56016987 -226.92382812 129.81445312 C-243.31433098 139.23609735 -256.89177273 148.01444896 -262.44360352 167.1784668 C-264.11267314 174.40421807 -264.07521907 181.55415483 -264 188.9375 C-263.99935547 190.13568359 -263.99871094 191.33386719 -263.99804688 192.56835938 C-263.98645522 194.93176958 -263.94815172 197.29522053 -263.88134766 199.65771484 C-263.8125 203 -263.8125 203 -263.98974609 206.06494141 C-264.03788514 209.0811373 -263.9123829 211.18503587 -262.8125 214 C-259.30475257 217.29852271 -255.33985103 219.34152193 -251.0625 221.5 C-249.96421875 222.09296875 -248.8659375 222.6859375 -247.734375 223.296875 C-245.68851687 224.39925487 -243.63366767 225.4852287 -241.56738281 226.54882812 C-239.70358316 227.53060986 -237.87376826 228.57928172 -236.08105469 229.68554688 C-233.96106004 231.16711486 -233.96106004 231.16711486 -231.8125 231 C-231.82821045 230.07364746 -231.8439209 229.14729492 -231.86010742 228.19287109 C-231.91189059 224.68516199 -231.94916231 221.1778714 -231.97729492 217.66992188 C-231.99218431 216.16497299 -232.0125027 214.66006589 -232.03881836 213.15527344 C-232.3695376 193.7271394 -228.94081201 176.96561901 -215.31640625 162.28125 C-208.51822332 156.08758568 -200.9160408 151.57919798 -192.9375 147.0625 C-191.20088923 146.07015099 -189.46428313 145.07779368 -187.72796631 144.08493042 C-185.93706461 143.0616938 -184.1448964 142.04070384 -182.35253906 141.02001953 C-176.82579764 137.86994686 -171.32040181 134.6828552 -165.8125 131.5 C-163.64593102 130.2498307 -161.47926408 128.99983113 -159.3125 127.75 C-158.24 127.13125 -157.1675 126.5125 -156.0625 125.875 C-146.3125 120.25 -146.3125 120.25 -143.06201172 118.37475586 C-140.89692929 117.12564482 -138.73189018 115.87645871 -136.56689453 114.62719727 C-131.12634294 111.48797691 -125.68502784 108.35009437 -120.2421875 105.21484375 C-109.79043801 99.19252671 -99.34950452 93.15330663 -88.9375 87.0625 C-79.66686069 81.64041301 -70.35313301 76.29675988 -61.02203369 70.97976685 C-51.95126869 65.80994813 -42.91925241 60.57712771 -33.91040039 55.30004883 C-26.66182494 51.0610207 -19.37841193 46.88627767 -12.08166504 42.73101807 C0.21169962 35.73648139 0.21169962 35.73648139 12.4375 28.625 C13.04537354 28.27397217 13.65324707 27.92294434 14.27954102 27.5612793 C15.61762131 26.76418979 16.90991406 25.89083373 18.1875 25 C18.1875 24.34 18.1875 23.68 18.1875 23 C17.16595825 22.42499756 17.16595825 22.42499756 16.1237793 21.83837891 C13.04017067 20.10179406 9.95757527 18.36341842 6.875 16.625 C5.80314453 16.02171875 4.73128906 15.4184375 3.62695312 14.796875 C2.59892578 14.21679688 1.57089844 13.63671875 0.51171875 13.0390625 C-0.43614502 12.50490723 -1.38400879 11.97075195 -2.3605957 11.42041016 C-4.21694072 10.34501283 -6.02746679 9.19002214 -7.8125 8 C-13.28374294 7.46653755 -16.50399546 8.45292677 -21.25 11.125 Z M-6.56542969 51.09423828 C-11.92235526 54.23831054 -17.30471436 57.33797616 -22.6875 60.4375 C-23.76676758 61.05947266 -24.84603516 61.68144531 -25.95800781 62.32226562 C-28.14864966 63.5846694 -30.339405 64.84687623 -32.53027344 66.10888672 C-37.95909942 69.23680148 -43.38569281 72.36858448 -48.8125 75.5 C-50.97915583 76.75001879 -53.1458225 78.00001878 -55.3125 79.25 C-56.385 79.86875 -57.4575 80.4875 -58.5625 81.125 C-146.3125 131.75 -146.3125 131.75 -149.56616211 133.62695312 C-151.72080624 134.870123 -153.87526757 136.11360975 -156.02954102 137.35742188 C-161.04004121 140.24983147 -166.05212635 143.13935227 -171.07113647 146.01696777 C-172.82978749 147.02548314 -174.58783209 148.0350477 -176.34570312 149.04492188 C-178.53722231 150.30350518 -180.72984504 151.56016987 -182.92382812 152.81445312 C-200.7180627 163.04299516 -213.90850321 171.83005896 -220.8125 192 C-221.9065161 196.30747708 -221.94190037 200.51037492 -221.91015625 204.92578125 C-221.9087413 205.67337204 -221.90732635 206.42096283 -221.90586853 207.19120789 C-221.90029764 209.56501365 -221.8877506 211.93872303 -221.875 214.3125 C-221.86998123 215.92773301 -221.86541899 217.5429675 -221.86132812 219.15820312 C-221.85033775 223.10550555 -221.83309332 227.05273647 -221.8125 231 C-218.02731268 229.5839494 -214.61500679 227.84578935 -211.11328125 225.83203125 C-209.99985352 225.19378418 -208.88642578 224.55553711 -207.73925781 223.89794922 C-206.53445086 223.20289367 -205.32969971 222.5077414 -204.125 221.8125 C-202.86961328 221.09105251 -201.61407708 220.36986506 -200.35839844 219.64892578 C-197.13129708 217.7949706 -193.90653586 215.93698535 -190.68243408 214.07781982 C-188.90329075 213.05233129 -187.12345951 212.02805128 -185.34326172 211.00439453 C-173.85157501 204.39637854 -162.38028258 197.75484003 -150.9375 191.0625 C-141.66744485 185.64088505 -132.3541835 180.29795143 -123.02404785 174.98077393 C-113.8996716 169.77954871 -104.81117226 164.51972122 -95.74560547 159.21655273 C-85.22165375 153.06233258 -74.65869863 146.97630004 -64.09472656 140.89111328 C-58.66590058 137.76319852 -53.23930719 134.63141552 -47.8125 131.5 C-45.64584417 130.24998121 -43.4791775 128.99998122 -41.3125 127.75 C-40.24 127.13125 -39.1675 126.5125 -38.0625 125.875 C-28.3125 120.25 -28.3125 120.25 -25.06152344 118.37451172 C-22.89802524 117.12628966 -20.73461357 115.87791761 -18.57128906 114.62939453 C-5.2306698 106.93072039 -5.2306698 106.93072039 1.14697266 103.27978516 C3.33038258 102.01587625 5.502234 100.7317736 7.66162109 99.42724609 C12.9184492 96.27701159 17.91477351 93.62800895 23.7109375 91.609375 C32.82815614 88.11121142 32.82815614 88.11121142 39.1875 81 C42.60083787 68.3896435 42.70000001 48.77036868 37.80834961 36.55639648 C36.28547884 33.77232832 36.28547884 33.77232832 33.1875 32 C20.90288186 30.47216514 3.4611327 45.18654043 -6.56542969 51.09423828 Z M32.65625 96.53515625 C31.24303467 97.36648071 31.24303467 97.36648071 29.80126953 98.21459961 C28.77372559 98.82440674 27.74618164 99.43421387 26.6875 100.0625 C24.48733999 101.35738411 22.28680662 102.65163401 20.0859375 103.9453125 C19.2326033 104.44788826 19.2326033 104.44788826 18.36203003 104.96061707 C12.36678337 108.48989216 6.34147094 111.96626043 0.3125 115.4375 C-1.30495117 116.36961304 -1.30495117 116.36961304 -2.95507812 117.32055664 C-5.14669355 118.58353525 -7.33842536 119.84631192 -9.53027344 121.10888672 C-14.95909942 124.23680148 -20.38569281 127.36858448 -25.8125 130.5 C-27.97915583 131.75001879 -30.1458225 133.00001878 -32.3125 134.25 C-33.385 134.86875 -34.4575 135.4875 -35.5625 136.125 C-175.3125 216.75 -175.3125 216.75 -178.56860352 218.62841797 C-180.71504459 219.86681771 -182.86136804 221.10542135 -185.00756836 222.34423828 C-190.11252006 225.29055356 -195.21870967 228.23466458 -200.32901001 231.17169189 C-202.75910552 232.56849807 -205.18853935 233.96645278 -207.61791992 235.36450195 C-209.34554415 236.35805992 -211.0741312 237.34994309 -212.80273438 238.34179688 C-213.83849609 238.93798828 -214.87425781 239.53417969 -215.94140625 240.1484375 C-216.85994385 240.67614746 -217.77848145 241.20385742 -218.72485352 241.74755859 C-220.72770859 242.8343467 -220.72770859 242.8343467 -221.8125 244 C-221.90808015 245.57606934 -221.93323452 247.15644931 -221.9309845 248.7354126 C-221.93190157 249.76661476 -221.93281864 250.79781693 -221.9337635 251.86026764 C-221.9295986 253.00756096 -221.92543369 254.15485428 -221.92114258 255.33691406 C-221.92061323 256.54596153 -221.92008389 257.755009 -221.9195385 259.00069427 C-221.91683798 262.3740527 -221.90950595 265.7473422 -221.90002418 269.12068462 C-221.89262898 272.00844697 -221.88872808 274.89620984 -221.88482529 277.7839787 C-221.87293775 286.5075899 -221.85089753 295.23115891 -221.82636261 303.95474243 C-221.81456972 308.16867226 -221.80423557 312.38260411 -221.79444182 316.59653902 C-221.74730176 336.87761306 -221.67796901 357.15847441 -221.57676506 377.43935394 C-221.53122512 386.61939001 -221.49173453 395.799377 -221.46606445 404.97949219 C-221.44312326 413.18299733 -221.40987655 421.38638147 -221.36379844 429.58979058 C-221.34002695 433.8786622 -221.32118736 438.16741636 -221.31488609 442.45635223 C-221.3088639 446.43321118 -221.28897053 450.40975513 -221.25822449 454.3864975 C-221.24943482 455.8389569 -221.24572361 457.29145734 -221.24749184 458.74394226 C-221.24914298 460.72465575 -221.23068877 462.70535556 -221.21122742 464.68597412 C-221.20661845 465.79158566 -221.20200949 466.89719719 -221.19726086 468.0363121 C-220.75774754 471.42174042 -219.84305876 473.27597741 -217.8125 476 C-214.23851104 478.38265931 -213.03190298 478.46937737 -208.8125 478 C-206.0693004 476.94966579 -203.55738736 475.56291941 -201 474.125 C-199.88032837 473.51325928 -199.88032837 473.51325928 -198.73803711 472.88916016 C-192.29119665 469.33896185 -185.94913764 465.61080876 -179.625 461.84765625 C-173.90533739 458.45008926 -168.13983919 455.13264483 -162.375 451.8125 C-161.26842041 451.17489746 -160.16184082 450.53729492 -159.02172852 449.88037109 C-156.7504453 448.57189492 -154.4790413 447.26362839 -152.20751953 445.95556641 C-146.7408002 442.80667946 -141.27675113 439.65316736 -135.8125 436.5 C-133.64584689 435.2499765 -131.47918021 433.99997653 -129.3125 432.75 C-128.24 432.13125 -127.1675 431.5125 -126.0625 430.875 C-64.3125 395.25 -64.3125 395.25 -61.06201172 393.37475586 C-58.89692929 392.12564482 -56.73189018 390.87645871 -54.56689453 389.62719727 C-49.12634294 386.48797691 -43.68502784 383.35009437 -38.2421875 380.21484375 C-24.6115679 372.36135316 -10.99335979 364.48735336 2.57568359 356.52783203 C4.95852474 355.13394346 7.34740024 353.7511263 9.73828125 352.37109375 C24.18189553 343.97834624 34.16558525 334.49671995 39.1875 318 C40.49267129 312.12613592 40.33081374 306.27306494 40.3203125 300.2890625 C40.32229141 298.42359772 40.32229141 298.42359772 40.3243103 296.52044678 C40.32708442 292.97892433 40.32238709 289.43744402 40.31607056 285.89592743 C40.31249011 283.61870696 40.31087376 281.34149296 40.30981445 279.06427002 C40.27486851 217.37601464 39.65923491 155.68613791 39.1875 94 C36.43009245 94 35.02945193 95.13027418 32.65625 96.53515625 Z M-263.8125 226 C-263.75200029 254.58087765 -263.67452499 283.16166552 -263.57678509 311.74244118 C-263.53180049 325.0126936 -263.49239193 338.28291902 -263.46606445 351.55322266 C-263.443106 363.11827235 -263.40973201 374.68323679 -263.36379844 386.24821889 C-263.33983728 392.37299773 -263.32112743 398.49769198 -263.31488609 404.62251663 C-263.30884839 410.38612206 -263.28889591 416.14951098 -263.25822449 421.91303635 C-263.2494232 424.02940113 -263.24572599 426.14579417 -263.24749184 428.26217651 C-263.24914102 431.15050957 -263.23247531 434.03817988 -263.21122742 436.92642212 C-263.21607499 437.7649537 -263.22092257 438.60348527 -263.22591704 439.4674269 C-263.16638273 444.36722694 -262.55581441 447.77176365 -259.8125 452 C-257.49061923 453.70041082 -255.37410613 455.07204454 -252.875 456.4375 C-252.21419434 456.81511475 -251.55338867 457.19272949 -250.87255859 457.58178711 C-249.51866086 458.35467636 -248.16121687 459.12138672 -246.80029297 459.88183594 C-244.91564941 460.94197687 -243.05085608 462.02919889 -241.19140625 463.1328125 C-236.75748137 466.30895543 -236.75748137 466.30895543 -231.8125 468 C-231.29807365 439.01953389 -230.91038763 410.03975385 -230.67263222 381.05563831 C-230.65019641 378.37408375 -230.62728734 375.69253366 -230.60400391 373.01098633 C-230.59823308 372.34449865 -230.59246225 371.67801098 -230.58651654 370.99132671 C-230.49095311 360.21902962 -230.31759974 349.44933272 -230.11513849 338.67857496 C-229.90891231 327.61469216 -229.78875439 316.55223781 -229.74255311 305.48653239 C-229.71391794 299.27455675 -229.6469022 293.06846249 -229.48643875 286.85837746 C-227.58651409 262.94502436 -227.58651409 262.94502436 -233.94792938 240.69860458 C-238.98647575 235.88287437 -244.46172723 233.56866707 -251.13227463 231.82134056 C-254.61138035 230.75518744 -257.30247277 229.03597402 -260.26676369 226.96470356 C-261.79160064 225.82351548 -261.79160064 225.82351548 -263.8125 226 Z " fill="#ffffff" transform="translate(367.8125,13)"/>
<path d="M0 0 C1.12728516 0.51046875 1.12728516 0.51046875 2.27734375 1.03125 C16.12574124 8.0383024 23.87260005 19.55661556 29.00390625 33.890625 C38.90644283 64.80207253 30.18536716 99.10376693 18 128 C17.68691895 128.74733398 17.37383789 129.49466797 17.05126953 130.26464844 C10.02258775 146.76288825 0.24282038 162.05512363 -11 176 C-11.65621338 176.81645996 -11.65621338 176.81645996 -12.32568359 177.64941406 C-30.57024048 200.16181481 -56.26120809 222.5182384 -86 227 C-106.87702343 228.236888 -106.87702343 228.236888 -116 224 C-116.75023437 223.6596875 -117.50046875 223.319375 -118.2734375 222.96875 C-132.12445966 215.97232925 -139.88435227 204.43631365 -145.00390625 190.1015625 C-156.512119 154.26814712 -143.67296524 113.51736622 -127.24755859 81.35400391 C-120.93718199 69.44702715 -113.56459915 58.39260379 -105 48 C-104.54012695 47.4332959 -104.08025391 46.8665918 -103.60644531 46.28271484 C-81.4297986 19.05363643 -37.9051984 -17.31213481 0 0 Z M-29 11 C-28.63648438 11.47308594 -28.27296875 11.94617188 -27.8984375 12.43359375 C-24.05368143 17.49092673 -20.47221015 22.68086955 -17 28 C-13.28919117 23.57557408 -10.15422267 18.82596069 -7 14 C-9.47999067 11.52000933 -10.95418162 11.45277898 -14.375 10.875 C-15.33148438 10.70742187 -16.28796875 10.53984375 -17.2734375 10.3671875 C-21.40864478 9.81029712 -24.96176412 10.10261425 -29 11 Z M-52 19 C-52 33.19 -52 47.38 -52 62 C-44.31564372 58.15782186 -38.00100578 52.2108414 -31.8125 46.3125 C-30.87019531 45.42175781 -29.92789063 44.53101563 -28.95703125 43.61328125 C-26.74029321 41.2074159 -26.74029321 41.2074159 -27.03515625 38.4765625 C-30.18559757 30.39000461 -35.05920503 22.97039748 -43 19 C-45.97 19 -48.94 19 -52 19 Z M3 20 C2.47829224 20.7410498 2.47829224 20.7410498 1.94604492 21.49707031 C0.3604903 23.7484892 -1.22599583 25.99925014 -2.8125 28.25 C-3.63331055 29.41595703 -3.63331055 29.41595703 -4.47070312 30.60546875 C-5.00244141 31.35957031 -5.53417969 32.11367187 -6.08203125 32.890625 C-6.56905518 33.58188477 -7.0560791 34.27314453 -7.55786133 34.98535156 C-8.5530018 36.37554949 -9.60293889 37.72755901 -10.69384766 39.04394531 C-12.82773969 42.23959821 -11.65797654 45.42150648 -11 49 C-10.67180326 51.15564811 -10.34793951 53.31195835 -10.02734375 55.46875 C-9.66521987 57.8126791 -9.30191293 60.15642569 -8.9375 62.5 C-8.75123047 63.70398438 -8.56496094 64.90796875 -8.37304688 66.1484375 C-7.91639373 69.09911939 -7.45868386 72.04963322 -7 75 C2.34970169 70.51202547 11.17110684 65.42759825 20 60 C18.55475263 46.0799859 16.13832957 33.18242961 7 22 C5.6873055 21.29356149 4.35566225 20.62000169 3 20 Z M-66 29 C-76.95322253 42.49310022 -86.80009854 61.59571627 -89 79 C-75.87726606 76.13262095 -75.87726606 76.13262095 -64 70 C-63.77245491 56.32201177 -64.44411847 42.66344983 -65 29 C-65.33 29 -65.66 29 -66 29 Z M-95 55 C-96.64432382 57.01871449 -98.23806276 59.05277931 -99.8125 61.125 C-100.25142578 61.69476563 -100.69035156 62.26453125 -101.14257812 62.8515625 C-106.70564736 69.29977316 -106.70564736 69.29977316 -109 77 C-106.36 77.66 -103.72 78.32 -101 79 C-100.20798823 76.31260128 -99.41638134 73.62508437 -98.625 70.9375 C-98.40328125 70.18533203 -98.1815625 69.43316406 -97.953125 68.65820312 C-96.6146171 64.11121305 -95.29575475 59.55936135 -94 55 C-94.33 55 -94.66 55 -95 55 Z M-31.39331055 61.98510742 C-34.49033401 64.93652803 -37.43463864 67.37581078 -41.1953125 69.4375 C-47.36500944 72.83461001 -47.36500944 72.83461001 -52 78 C-53.80005139 85.50963145 -52.93300508 93.40868786 -52 101 C-41.21334289 95.21197033 -30.61592813 89.09369945 -20 83 C-19.76110345 73.40432207 -20.21168141 64.46850826 -22 55 C-25.75897288 55 -28.78151466 59.42414941 -31.39331055 61.98510742 Z M12.6875 78.02734375 C11.07488281 78.96803711 11.07488281 78.96803711 9.4296875 79.92773438 C8.29789063 80.59095703 7.16609375 81.25417969 6 81.9375 C4.86820313 82.59685547 3.73640625 83.25621094 2.5703125 83.93554688 C-2.49133802 86.58856572 -2.49133802 86.58856572 -7 90 C-7.28889873 92.07315091 -7.51650958 94.15489075 -7.71875 96.23828125 C-7.84636719 97.53443359 -7.97398437 98.83058594 -8.10546875 100.16601562 C-8.23700964 101.54817418 -8.36851989 102.93033566 -8.5 104.3125 C-8.63112256 105.65173074 -8.76262874 106.99092398 -8.89453125 108.33007812 C-9.66248696 116.21519916 -10.36090027 124.1034312 -11 132 C-7.04 132.99 -3.08 133.98 1 135 C10.89959077 117.42822638 19.41186218 95.41291908 19 75 C16.83206629 75 14.46825232 76.98784979 12.6875 78.02734375 Z M-72.375 87.375 C-78.82261641 89.77288082 -85.15814657 91.16043191 -92 92 C-95.38258869 103.10000743 -96.38801217 114.42430371 -96 126 C-92.35151454 124.62301886 -89.01530337 122.98346448 -85.62109375 121.06640625 C-84.61755859 120.49986328 -83.61402344 119.93332031 -82.58007812 119.34960938 C-81.54302734 118.75986328 -80.50597656 118.17011719 -79.4375 117.5625 C-78.39658203 116.97662109 -77.35566406 116.39074219 -76.28320312 115.78710938 C-72.11899341 113.43221502 -72.11899341 113.43221502 -68 111 C-66.85978394 110.32735107 -66.85978394 110.32735107 -65.6965332 109.64111328 C-63.77292867 108.09786733 -63.77292867 108.09786733 -63.54589844 105.5480957 C-63.5668457 104.60023193 -63.58779297 103.65236816 -63.609375 102.67578125 C-63.62226563 101.64775391 -63.63515625 100.61972656 -63.6484375 99.56054688 C-63.68195313 98.48869141 -63.71546875 97.41683594 -63.75 96.3125 C-63.76804687 95.22904297 -63.78609375 94.14558594 -63.8046875 93.02929688 C-63.85186492 90.35197854 -63.91767751 87.67643091 -64 85 C-67.05313807 85 -69.53182299 86.28919509 -72.375 87.375 Z M-117 89 C-127.23349538 107.7924188 -132.79341429 126.88666591 -136 148 C-135.34 148.33 -134.68 148.66 -134 149 C-131.44616582 147.82098044 -131.44616582 147.82098044 -128.58984375 146.0703125 C-127.51798828 145.43996094 -126.44613281 144.80960938 -125.34179688 144.16015625 C-123.65666992 143.15275391 -123.65666992 143.15275391 -121.9375 142.125 C-120.81021484 141.46113281 -119.68292969 140.79726563 -118.52148438 140.11328125 C-113.48846509 137.42817564 -113.48846509 137.42817564 -109 134 C-108.71090363 131.84199398 -108.48339136 129.67569293 -108.28125 127.5078125 C-108.21844849 126.84723846 -108.15564697 126.18666443 -108.09094238 125.506073 C-107.88977613 123.37941816 -107.69482898 121.25224384 -107.5 119.125 C-107.36889427 117.7291286 -107.23738837 116.33329472 -107.10546875 114.9375 C-106.38563561 107.29333207 -105.69153427 99.64677316 -105 92 C-110.94 90.515 -110.94 90.515 -117 89 Z M-27.7421875 101.17578125 C-28.30696808 101.5016069 -28.87174866 101.82743256 -29.4536438 102.16313171 C-30.65014085 102.85465693 -31.84541281 103.5483055 -33.03955078 104.24389648 C-34.85801823 105.30261317 -36.68058124 106.35397285 -38.50390625 107.40429688 C-43.2743159 110.16427616 -43.2743159 110.16427616 -48 113 C-48.77585449 113.45890625 -49.55170898 113.9178125 -50.35107422 114.390625 C-52.22748575 115.91268368 -52.22748575 115.91268368 -52.45410156 118.4519043 C-52.4331543 119.39976807 -52.41220703 120.34763184 -52.390625 121.32421875 C-52.37773437 122.35224609 -52.36484375 123.38027344 -52.3515625 124.43945312 C-52.31804687 125.51130859 -52.28453125 126.58316406 -52.25 127.6875 C-52.23195313 128.77095703 -52.21390625 129.85441406 -52.1953125 130.97070312 C-52.14813508 133.64802146 -52.08232249 136.32356909 -52 139 C-51.34410889 138.80229004 -50.68821777 138.60458008 -50.01245117 138.40087891 C-31.50879836 132.83431093 -31.50879836 132.83431093 -24 132 C-20.82047545 121.09877297 -19.50951869 109.33556799 -20 98 C-23.09361968 98 -25.08311551 99.63757095 -27.7421875 101.17578125 Z M-71.08203125 126.39453125 C-71.69261887 126.74255295 -72.30320648 127.09057465 -72.93229675 127.44914246 C-74.22835036 128.1887272 -75.52376761 128.92942801 -76.81860352 129.67114258 C-78.7917584 130.80062698 -80.76778747 131.92495168 -82.74414062 133.04882812 C-84.00278296 133.76791631 -85.26125206 134.48730782 -86.51953125 135.20703125 C-87.66526611 135.8616333 -88.81100098 136.51623535 -89.99145508 137.19067383 C-91.48068481 138.08629028 -91.48068481 138.08629028 -93 139 C-93.79390137 139.47155518 -94.58780273 139.94311035 -95.40576172 140.42895508 C-97.22640359 141.8987728 -97.22640359 141.8987728 -97.28637695 144.28076172 C-97.18800537 145.15490723 -97.08963379 146.02905273 -96.98828125 146.9296875 C-96.88966797 147.89003906 -96.79105469 148.85039062 -96.68945312 149.83984375 C-96.56505859 150.84144531 -96.44066406 151.84304688 -96.3125 152.875 C-96.20744141 153.86886719 -96.10238281 154.86273438 -95.99414062 155.88671875 C-95.51154109 160.3100544 -94.91670047 164.64383935 -94 169 C-90.38260377 167.46156712 -88.00995857 165.27223365 -85.1875 162.5625 C-81.89270482 159.40163958 -78.96090318 156.87218526 -74.9453125 154.703125 C-68.70072982 151.24205522 -68.70072982 151.24205522 -64 146 C-62.18338723 138.49776436 -63.06753347 130.58693028 -64 123 C-66.32166253 123 -69.18722764 125.31436357 -71.08203125 126.39453125 Z M-40.0625 148.3125 C-41.84333984 148.95638672 -41.84333984 148.95638672 -43.66015625 149.61328125 C-44.76230469 150.07089844 -45.86445313 150.52851563 -47 151 C-48.32572021 151.49209961 -48.32572021 151.49209961 -49.67822266 151.99414062 C-52.13070717 153.71316781 -52.13070717 153.71316781 -52.43388367 155.89311218 C-52.58159965 158.43664146 -52.56104943 160.93361084 -52.48828125 163.48046875 C-52.48120651 164.40845779 -52.47413177 165.33644684 -52.46684265 166.29255676 C-52.43883943 169.2583558 -52.37609033 172.22227108 -52.3125 175.1875 C-52.28742478 177.19723837 -52.26461026 179.20700632 -52.24414062 181.21679688 C-52.18899327 186.14525776 -52.10267997 191.07230946 -52 196 C-38.4261258 182.70374153 -32.15758681 163.87329623 -27 146 C-31.87968511 145.72435367 -35.49220999 146.626615 -40.0625 148.3125 Z M-15 146 C-16.1996042 149.45425518 -17.38260295 152.91396865 -18.5625 156.375 C-18.90474609 157.35984375 -19.24699219 158.3446875 -19.59960938 159.359375 C-19.91865234 160.30039062 -20.23769531 161.24140625 -20.56640625 162.2109375 C-20.86490479 163.08024902 -21.16340332 163.94956055 -21.47094727 164.84521484 C-22.25424067 167.0311721 -22.25424067 167.0311721 -21 169 C-19.41418022 166.96022417 -17.83131092 164.91826692 -16.25 162.875 C-15.8065625 162.30523437 -15.363125 161.73546875 -14.90625 161.1484375 C-9.30335604 154.71489079 -9.30335604 154.71489079 -7 147 C-9.64 146.67 -12.28 146.34 -15 146 Z M-115.0234375 151.7734375 C-116.044375 152.3509375 -117.0653125 152.9284375 -118.1171875 153.5234375 C-119.19226563 154.13445312 -120.26734375 154.74546875 -121.375 155.375 C-122.44234375 155.97828125 -123.5096875 156.5815625 -124.609375 157.203125 C-130.38834835 160.46445339 -130.38834835 160.46445339 -136 164 C-135.72165632 177.58823251 -131.89597654 191.43229633 -123 202 C-121.68590167 202.7038237 -120.35414489 203.37669122 -119 204 C-118.53158691 203.31224487 -118.53158691 203.31224487 -118.05371094 202.6105957 C-116.62120386 200.50981506 -115.1856289 198.41114835 -113.75 196.3125 C-113.25886719 195.59126953 -112.76773438 194.87003906 -112.26171875 194.12695312 C-111.77832031 193.42119141 -111.29492188 192.71542969 -110.796875 191.98828125 C-110.32386963 191.29694092 -109.85086426 190.60560059 -109.36352539 189.89331055 C-108 188 -108 188 -105.60546875 185.2890625 C-103.78766757 183.14647134 -103.78766757 183.14647134 -103.94140625 180.66015625 C-104.14636719 179.80292969 -104.35132813 178.94570313 -104.5625 178.0625 C-104.77777344 177.03769531 -104.99304688 176.01289063 -105.21484375 174.95703125 C-105.34101074 174.35713379 -105.46717773 173.75723633 -105.59716797 173.13916016 C-106.46321722 168.54017622 -107.01249061 163.88820785 -107.625 159.25 C-107.88786013 157.29685337 -108.150869 155.34372674 -108.4140625 153.390625 C-108.60962471 151.92711668 -108.80503722 150.4635883 -109 149 C-111.10076164 149 -113.27118104 150.78112345 -115.0234375 151.7734375 Z M-72 166.875 C-72.57508301 167.3695166 -73.15016602 167.8640332 -73.74267578 168.37353516 C-75.50555229 169.9042874 -77.25544871 171.44840815 -79 173 C-79.79422363 173.70382812 -79.79422363 173.70382812 -80.60449219 174.421875 C-82.04728546 175.71843293 -83.46198816 177.04604836 -84.875 178.375 C-85.69742188 179.14585937 -86.51984375 179.91671875 -87.3671875 180.7109375 C-89.25604726 182.86890748 -89.25604726 182.86890748 -88.91796875 185.484375 C-86.00811834 193.45860337 -81.14937435 200.32430918 -74 205 C-69.87066761 206.27056381 -68.24757958 206.06189489 -64 205 C-64 190.81 -64 176.62 -64 162 C-67.37928298 162 -69.54013059 164.75558721 -72 166.875 Z M-100 196 C-101.59346254 198.26875893 -103.12192922 200.54751768 -104.625 202.875 C-105.058125 203.52597656 -105.49125 204.17695313 -105.9375 204.84765625 C-107.02330864 206.52478106 -108.019105 208.25943313 -109 210 C-108.20154719 212.17631501 -108.20154719 212.17631501 -106.1015625 212.66796875 C-99.49500128 214.05388774 -93.67074251 213.93846948 -87 213 C-87.36351562 212.52691406 -87.72703125 212.05382812 -88.1015625 211.56640625 C-91.53136512 207.05489665 -94.73359901 202.45330548 -97.80078125 197.6875 C-98.19652344 197.130625 -98.59226562 196.57375 -99 196 C-99.33 196 -99.66 196 -100 196 Z " fill="#ffffff" transform="translate(335,192)"/>
<path d="M0 0 C2 2 2 2 2.39208984 4.90844727 C2 8 2 8 0.22119141 9.88647461 C-0.60203613 10.40733643 -1.42526367 10.92819824 -2.2734375 11.46484375 C-3.19092773 12.05249512 -4.10841797 12.64014648 -5.05371094 13.24560547 C-9.86402204 16.10994882 -14.71186268 18.87821516 -19.625 21.5625 C-28.07904607 26.23824694 -36.48121674 30.98373048 -44.8125 35.875 C-54.74881106 41.70211838 -64.72747071 47.45136402 -74.73999023 53.14624023 C-80.25414394 56.28335663 -85.75843645 59.43430739 -91.23046875 62.64453125 C-92.18864502 63.20317871 -93.14682129 63.76182617 -94.1340332 64.33740234 C-95.90389315 65.37059573 -97.66968541 66.4108036 -99.43041992 67.45947266 C-103.59240522 69.87920169 -107.07006856 71.78072391 -112 72 C-113.875 70.875 -113.875 70.875 -115 69 C-115.5 66.5625 -115.5 66.5625 -115 64 C-111.81512648 61.16041041 -108.43602794 58.96472108 -104.73828125 56.85546875 C-103.20397461 55.97568359 -103.20397461 55.97568359 -101.63867188 55.078125 C-100.54103516 54.45421875 -99.44339844 53.8303125 -98.3125 53.1875 C-97.15013283 52.52258588 -95.98802819 51.85721263 -94.82617188 51.19140625 C-92.4145854 49.8099087 -90.00188656 48.43038435 -87.58837891 47.05224609 C-82.04829045 43.88661445 -76.52506019 40.69176113 -71 37.5 C-68.83341204 36.24986359 -66.66674512 34.999864 -64.5 33.75 C-63.4275 33.13125 -62.355 32.5125 -61.25 31.875 C-58 30 -54.75 28.125 -51.5 26.25 C-50.42588867 25.6300415 -49.35177734 25.01008301 -48.24511719 24.37133789 C-46.09570262 23.13185078 -43.94532343 21.89403482 -41.79394531 20.65795898 C-36.71468214 17.73695849 -31.64694203 14.79992103 -26.61242676 11.80252075 C-24.2352419 10.38860483 -21.8524856 8.98423337 -19.46923828 7.58056641 C-17.79037896 6.58641086 -16.11967801 5.57851868 -14.44921875 4.5703125 C-13.42957031 3.97089844 -12.40992188 3.37148437 -11.359375 2.75390625 C-10.46702148 2.22095947 -9.57466797 1.6880127 -8.65527344 1.13891602 C-5.53754546 -0.19835881 -3.36022127 -0.35783945 0 0 Z " fill="#ffffff" transform="translate(389,75)"/>
<path d="M0 0 C3.64353633 2.94583788 5.64643337 5.16567075 6.23828125 9.91015625 C6.52734496 18.29300379 3.9458061 25.01984688 -1.4375 31.4375 C-5.82360557 36.04662788 -9.61861874 38.48385604 -16.0078125 39.0625 C-19.30090292 38.95918736 -21.33214508 37.86129413 -24 36 C-27.59646755 32.16376795 -27.5030047 27.92858658 -27.34765625 22.91015625 C-26.39966396 14.97471518 -22.83231711 8.41034068 -17 3 C-11.53855311 -0.90103349 -6.57737479 -1.93145133 0 0 Z M-11.46484375 13.234375 C-14.36514658 16.57009225 -15.95221803 20.73661131 -17 25 C-16.67 25.99 -16.34 26.98 -16 28 C-11.55990992 26.85826255 -9.47975493 24.76478476 -7.00390625 21.0859375 C-5.29426531 17.53360964 -5.0972092 13.89720526 -5 10 C-7.85281014 10 -9.36187878 11.43626245 -11.46484375 13.234375 Z " fill="#ffffff" transform="translate(221,163)"/>
<path d="M0 0 C3.70573215 3.06125699 5.70214703 5.29490906 6.23828125 10.1640625 C6.51609022 19.37562309 3.18661054 27.15561764 -3 34 C-8.37773218 38.08707646 -12.23245426 39.46672729 -19 39 C-22.38399412 37.61563877 -23.73391502 36.38536445 -25.8125 33.375 C-28.06386223 26.97639157 -27.59566267 20.67745075 -25.234375 14.33984375 C-22.06720263 8.33624802 -17.2197535 2.52107898 -10.875 -0.1875 C-6.67617684 -1.0678984 -4.10841108 -1.24027504 0 0 Z M-12 14 C-15.52213652 18.57537992 -16.47883796 22.13423495 -16 28 C-10.76070901 26.39910553 -8.70418238 23.55627357 -5.75 19.125 C-4.67014208 16.06540257 -4.87642742 13.21288704 -5 10 C-8.27074772 10 -9.65427441 11.82182624 -12 14 Z " fill="#ffffff" transform="translate(257,142)"/>
<path d="M0 0 C3.09772378 2.44018807 4.75183779 5.25551337 6 9 C6.76657026 16.35907452 4.55933143 23.30655724 0.3515625 29.37890625 C-3.36380291 33.78380455 -6.6503365 37.5533782 -12.578125 38.34375 C-17.51194293 38.60759053 -20.10210429 38.68240074 -24.125 35.625 C-27.91573837 30.31796629 -27.76908664 25.38933519 -27 19 C-24.02033943 10.14615145 -19.51581741 4.33852106 -11.625 -0.4375 C-7.58760536 -1.302656 -3.9557395 -1.24691789 0 0 Z M-11.4609375 13.3046875 C-14.21138215 16.33436511 -16.14039217 19.99566022 -17 24 C-16.18696684 26.24846813 -16.18696684 26.24846813 -15 28 C-10.53261341 25.76630671 -8.30191894 23.4394151 -6 19 C-5.41256997 16.00410684 -5.13545482 13.04773338 -5 10 C-7.87033786 10 -9.3565472 11.49055793 -11.4609375 13.3046875 Z " fill="#ffffff" transform="translate(185,184)"/>
</svg>