<svg xmlns="http://www.w3.org/2000/svg" width="119.185" height="119.205" viewBox="0 0 119.185 119.205">
  <g id="EDIT_TOOLS_OUTLINE" data-name="EDIT TOOLS OUTLINE" transform="translate(2.597 0.031)">
    <path id="Path_24" data-name="Path 24" d="M4.391,119.175a7.031,7.031,0,0,0,1.63-.193c4.118-.959,8.216-2,12.178-3,7-1.774,14.243-3.611,21.684-5.019h.04c11.75-2.328,24.6-3.725,36.747-4.859,6.814-.645,12.015-5.292,12.944-11.564.931-6.016,1.72-16.781,2.24-25.085a31.7,31.7,0,0,0,3.413,2.524,11.895,11.895,0,0,0,11.445-.6l.056-.037a27.239,27.239,0,0,0,4.908-4.393A27.733,27.733,0,0,0,115.4,61.6c.012-.023.023-.047.037-.07a11.933,11.933,0,0,0-.559-11.263c-1.292-2.011-17.212-18.324-23.723-24.845S68.339,2.973,66.318,1.671A11.946,11.946,0,0,0,55.085,1.11l-.072.037A27.737,27.737,0,0,0,49.645,4.9a27.183,27.183,0,0,0-4.372,4.889l-.037.054a11.971,11.971,0,0,0-.582,11.487,30.8,30.8,0,0,0,2.447,3.32c-8.3.519-19.067,1.313-25.083,2.242-6.267.931-10.909,6.132-11.554,12.953C9.322,51.988,7.944,64.849,5.609,76.608v.04C4.212,84.1,2.366,91.34.592,98.348c-1,3.958-2.042,8.067-3,12.19a7.024,7.024,0,0,0,6.8,8.637ZM52.562,14.818a18.173,18.173,0,0,1,2.95-3.285,18.8,18.8,0,0,1,3.646-2.561,3.365,3.365,0,0,1,2.312.1c1.816,1.5,13.705,12.863,23.444,22.6s21.076,21.633,22.582,23.46a3.379,3.379,0,0,1,.1,2.316,18.8,18.8,0,0,1-2.54,3.632,18.324,18.324,0,0,1-3.3,2.964,3.33,3.33,0,0,1-2.328.109,307.045,307.045,0,0,1-24.89-22.117A309.359,309.359,0,0,1,52.45,17.146a3.365,3.365,0,0,1,.112-2.328Zm-38.278,63.5a379.052,379.052,0,0,0,4.982-37.643c.258-2.733,1.862-4.71,4.056-5.033h.033c7.555-1.164,23.9-2.158,30.859-2.545,4.365,5,9.545,10.681,14.085,15.2S78.441,57.976,83.43,62.33c-.4,6.97-1.378,23.32-2.542,30.866a.137.137,0,0,1,0,.033c-.324,2.207-2.3,3.8-5.029,4.058-12.367,1.164-25.483,2.575-37.617,4.984-7.7,1.46-15.067,3.327-22.194,5.133l-.838.212L32.149,90.665a16.476,16.476,0,1,0-6.256-6.251L8.95,101.36c.072-.279.142-.561.212-.84,1.8-7.129,3.664-14.5,5.122-22.205Zm18.313-2a7.631,7.631,0,1,1,2.235,5.4,7.58,7.58,0,0,1-2.235-5.4Z" transform="translate(0 0)" fill="#fff9f9"/>
  </g>
</svg>
