<svg version="1.1" xmlns="http://www.w3.org/2000/svg" width="512px" height="512px" transform="rotate(0) scale(1, 1)">
<path d="M0 0 C1.46310112 -0.00543209 2.92619676 -0.0125608 4.38928223 -0.02124023 C8.32899524 -0.03933641 12.26828515 -0.03246652 16.20800471 -0.01972389 C20.34209561 -0.00953802 24.4761523 -0.01900374 28.61024475 -0.02526855 C35.54247498 -0.03252309 42.47453409 -0.02300919 49.40673828 -0.00390625 C57.41919201 0.01791858 65.43123945 0.0107619 73.44368356 -0.01121187 C80.33651518 -0.02935695 87.2292245 -0.03193041 94.12207228 -0.0214572 C98.23347204 -0.01522504 102.34468059 -0.01438012 106.45606804 -0.02760315 C110.31488765 -0.03915027 114.17318152 -0.03115752 118.03194427 -0.00802612 C119.44770242 -0.00273543 120.8635048 -0.00425905 122.27924538 -0.01307678 C124.21059722 -0.02399812 126.14204575 -0.0078772 128.073349 0.00964355 C129.69455359 0.01190571 129.69455359 0.01190571 131.34850979 0.01421356 C134.80692422 0.63851786 135.98589721 1.79562622 138.13696289 4.51757812 C138.66821289 6.51757813 138.66821289 6.51757813 138.63696289 8.51757812 C138.65243164 9.50757812 138.65243164 9.50757812 138.66821289 10.51757812 C137.8908871 13.44398109 136.4606183 14.61229793 134.13696289 16.51757812 C131.4834795 17.01980019 131.4834795 17.01980019 128.40156555 17.02310181 C127.23109177 17.0341243 126.06061798 17.04514679 124.85467529 17.0565033 C123.57409241 17.04833084 122.29350952 17.04015839 120.97412109 17.03173828 C119.6088329 17.03719987 118.24355083 17.04444175 116.87828064 17.05332947 C113.93931473 17.06866851 111.00069793 17.07146778 108.06170082 17.06456375 C103.40868641 17.05377153 98.756036 17.0711681 94.10307312 17.09237671 C86.73676522 17.12264805 79.37056509 17.13433175 72.00420016 17.13795316 C58.83130817 17.14459217 45.65849213 17.17374797 32.48569173 17.22304952 C27.86681599 17.23948803 23.24809699 17.24497557 18.62919486 17.24145913 C15.74542487 17.24101977 12.8617132 17.24862136 9.97796059 17.25813484 C8.01760676 17.26206503 6.05724075 17.25607349 4.09689331 17.24971008 C-5.50768672 17.29335446 -13.01829355 17.77752186 -20.86303711 23.51757812 C-21.52303711 23.51757812 -22.18303711 23.51757812 -22.86303711 23.51757812 C-27.55088047 32.53266152 -29.01020053 40.03498702 -29.02125549 50.04672241 C-29.02618515 50.99694275 -29.03111481 51.94716309 -29.03619385 52.92617798 C-29.05155369 56.11598533 -29.05992644 59.30577283 -29.06835938 62.49560547 C-29.0780764 64.8191934 -29.08822197 67.14277956 -29.09876156 69.46636391 C-29.12580706 75.6898909 -29.14698584 81.91342495 -29.16695404 88.13697815 C-29.18657761 93.97650644 -29.21148583 99.81600752 -29.23596191 105.65551758 C-29.30446626 122.73451728 -29.36448271 139.81355017 -29.42553711 156.89257812 C-29.56991211 195.04882812 -29.71428711 233.20507812 -29.86303711 272.51757812 C117.97696289 272.51757812 265.81696289 272.51757812 418.13696289 272.51757812 C418.13696289 228.95757812 418.13696289 185.39757812 418.13696289 140.51757812 C422.13696289 136.51757812 422.13696289 136.51757812 424.13696289 135.98632812 C424.79696289 135.99664062 425.45696289 136.00695312 426.13696289 136.01757812 C427.12696289 136.00210938 427.12696289 136.00210938 428.13696289 135.98632812 C431.10833779 136.77559958 432.23379851 138.11937273 434.13696289 140.51757812 C434.64032745 143.68084812 434.64032745 143.68084812 434.64489746 147.49232483 C434.6542574 148.54549138 434.6542574 148.54549138 434.66380644 149.61993402 C434.67976262 151.97295703 434.66712245 154.3249478 434.65454102 156.67797852 C434.65996135 158.3651388 434.66708351 160.05229435 434.67578125 161.73944092 C434.694038 166.32462486 434.68693485 170.90944929 434.67426491 175.49463964 C434.66413777 180.29814832 434.67353087 185.10162621 434.67980957 189.90513611 C434.68709172 197.97970091 434.67748854 206.05411951 434.65844727 214.12866211 C434.63672898 223.44559321 434.64369081 232.76217347 434.66575289 242.0790959 C434.68395242 250.08695591 434.68644146 258.09471074 434.67599821 266.10258478 C434.6697816 270.88108618 434.66887593 275.65942324 434.68214417 280.43791389 C434.69376653 284.93848032 434.68556121 289.43859897 434.66256714 293.93911743 C434.65731173 295.58413897 434.65873903 297.22919867 434.6676178 298.87420464 C434.73413675 312.45958282 432.84517811 323.34798238 423.13696289 333.51757812 C412.07878907 344.07405786 400.22062513 345.10471499 385.64013672 344.97167969 C383.89469428 344.9705495 382.14924994 344.97118841 380.40380859 344.97344971 C375.69576307 344.9745911 370.98813034 344.95117545 366.28018022 344.92315388 C361.34881101 344.89804386 356.41743096 344.89579068 351.48600769 344.89105225 C342.16125918 344.87865058 332.83669965 344.84586717 323.51203412 344.80565429 C312.89048427 344.76084891 302.2689251 344.73892753 291.64730418 344.71887255 C269.81039505 344.67713187 247.97374476 344.60381479 226.13696289 344.51757812 C226.13696289 362.99757813 226.13696289 381.47757812 226.13696289 400.51757812 C240.43755934 400.35939201 240.43755934 400.35939201 254.73754883 400.15722656 C256.53213552 400.14554264 258.32673281 400.13535012 260.12133789 400.12695312 C261.05091309 400.10648926 261.98048828 400.08602539 262.93823242 400.06494141 C269.51423627 400.06138104 269.51423627 400.06138104 272.72973633 402.41699219 C274.24649429 404.68107712 274.67915796 405.81709375 274.63696289 408.51757812 C274.64727539 409.17757813 274.65758789 409.83757812 274.66821289 410.51757812 C273.88632062 413.46117256 272.48939664 414.61358505 270.13696289 416.51757812 C267.28210449 417.02094269 267.28210449 417.02094269 263.91235352 417.0255127 C261.99434937 417.04243164 261.99434937 417.04243164 260.03759766 417.05969238 C258.62280047 417.05191536 257.20800552 417.04372269 255.79321289 417.03515625 C254.3015881 417.04057704 252.80996866 417.04769946 251.31835938 417.05639648 C247.26873661 417.07463816 243.21952128 417.06755902 239.16989136 417.05488014 C234.93299253 417.04475677 230.69612871 417.05414397 226.45922852 417.0604248 C219.34393039 417.06770316 212.22879831 417.05810864 205.11352539 417.0390625 C196.88593489 417.01729332 188.65874086 417.02434456 180.43115997 417.04636812 C173.36862035 417.06451683 166.30620012 417.06708306 159.24364471 417.05661345 C155.02483114 417.05037557 150.80620396 417.04955086 146.58740234 417.0627594 C142.62115916 417.07430968 138.6554274 417.06630774 134.6892395 417.04318237 C133.23317311 417.03789081 131.77706372 417.03941678 130.3210144 417.04823303 C128.33454927 417.05915247 126.34799013 417.04303513 124.36157227 417.0255127 C123.24955444 417.02400459 122.13753662 417.02249649 120.99182129 417.02094269 C117.48487217 416.40260242 116.30862421 415.28240941 114.13696289 412.51757812 C113.60571289 410.51757812 113.60571289 410.51757812 113.63696289 408.51757812 C113.62665039 407.85757812 113.61633789 407.19757813 113.60571289 406.51757812 C114.42961023 403.41584695 115.52836176 402.42858724 118.13696289 400.51757812 C121.47586019 399.95168007 124.77467913 400.05259112 128.15258789 400.12695312 C129.01352051 400.13098145 129.87445313 400.13500977 130.76147461 400.13916016 C133.97018823 400.16005095 137.17859749 400.21589669 140.38696289 400.26757812 C147.56446289 400.35007812 154.74196289 400.43257813 162.13696289 400.51757812 C162.13696289 382.03757812 162.13696289 363.55757813 162.13696289 344.51757812 C156.8327124 344.53852539 151.52846191 344.55947266 146.06347656 344.58105469 C128.53338156 344.64734963 111.00328161 344.69172756 93.47309399 344.72482681 C82.84511602 344.74542833 72.21725705 344.77350282 61.58935547 344.81933594 C52.32315928 344.85927752 43.05704929 344.88502845 33.7907694 344.8939321 C28.88696162 344.89913445 23.98340041 344.91131151 19.07967186 344.94049835 C14.45775764 344.96778322 9.83618999 344.97599684 5.21420288 344.97000885 C3.5240064 344.97110327 1.83379752 344.97897897 0.14367104 344.99440002 C-13.5954591 345.11353906 -24.56623604 343.34722754 -34.86303711 333.51757812 C-43.72266765 324.23689584 -46.47727454 314.16393628 -46.37097168 301.56298828 C-46.37721164 300.40978907 -46.3834516 299.25658985 -46.38988066 298.06844521 C-46.40574715 294.23096473 -46.39323057 290.39412503 -46.38061523 286.55664062 C-46.38384009 283.7945628 -46.39301947 281.03251159 -46.40185547 278.27044678 C-46.419587 271.5631877 -46.41582479 264.85610828 -46.40420491 258.14884233 C-46.39514962 252.69485539 -46.39395561 247.24091858 -46.39830017 241.78692627 C-46.3989131 241.00894074 -46.39952604 240.23095521 -46.40015754 239.42939436 C-46.40143652 237.84864027 -46.40273337 236.26788619 -46.40404791 234.68713212 C-46.41543798 219.88490663 -46.40236475 205.08278043 -46.38084644 190.28057122 C-46.36297687 177.59585195 -46.36608142 164.91127913 -46.38452148 152.2265625 C-46.40595605 137.47517425 -46.41433949 122.72387289 -46.40207243 107.97247124 C-46.40079831 106.39772417 -46.39954083 104.82297708 -46.39830017 103.24822998 C-46.39768307 102.47354358 -46.39706597 101.69885719 -46.39643016 100.90069544 C-46.39298501 95.45698934 -46.39878755 90.01333863 -46.40821838 84.56964111 C-46.41946855 77.9302129 -46.41633524 71.29097371 -46.39509541 64.65156698 C-46.38462506 61.26775382 -46.38256795 57.88451407 -46.39369202 54.50066376 C-46.40466176 50.82418724 -46.3908648 47.14858891 -46.37097168 43.47216797 C-46.37989457 42.41446512 -46.38881745 41.35676228 -46.39801073 40.26700783 C-46.27955183 28.93969306 -42.70783406 19.73519711 -34.86303711 11.51757812 C-24.60915794 1.7289033 -13.7845707 -0.08680124 0 0 Z M-29.86303711 288.51757812 C-30.5432015 306.44297407 -30.5432015 306.44297407 -22.86303711 321.51757812 C-13.43902152 329.62470071 -1.37305987 328.80719101 10.34423828 328.77154541 C11.99551309 328.77385183 13.64678687 328.77702957 15.29805851 328.7809999 C19.82100645 328.78933164 24.34386975 328.78522999 28.86681795 328.77902746 C33.75031889 328.77449735 38.6338054 328.78148951 43.51730347 328.7869873 C53.07831268 328.79587696 62.63929049 328.79396119 72.20030093 328.78816202 C79.97127461 328.78364387 87.74223949 328.7830333 95.51321411 328.78520966 C97.17270398 328.78566935 97.17270398 328.78566935 98.8657189 328.78613834 C101.11325352 328.7867778 103.36078813 328.78742622 105.60832274 328.78808352 C126.67968245 328.79378557 147.75102476 328.78723089 168.82238162 328.77648279 C186.89958149 328.7675474 204.97675567 328.76909947 223.05395508 328.77832031 C244.05031348 328.78902516 265.04665663 328.79323626 286.04301739 328.78709579 C288.28224881 328.78645869 290.52148024 328.78582995 292.76071167 328.78520966 C293.86243448 328.7849011 294.96415729 328.78459255 296.09926564 328.78427465 C303.86021768 328.78254836 311.62116005 328.78546141 319.3821106 328.79016876 C328.84108131 328.79577996 338.30001884 328.79425608 347.75898576 328.78360727 C352.58436678 328.77835382 357.40969248 328.77628832 362.23507309 328.78290558 C366.65403355 328.78887382 371.07288751 328.78557544 375.49183834 328.77495047 C377.08862226 328.77272017 378.68541521 328.77384444 380.2821933 328.77870205 C395.66902254 329.10355803 395.66902254 329.10355803 409.13696289 322.51757812 C419.26169443 312.32000679 418.13696289 303.3263364 418.13696289 288.51757812 C270.29696289 288.51757812 122.45696289 288.51757812 -29.86303711 288.51757812 Z M178.13696289 344.51757812 C178.13696289 362.99757813 178.13696289 381.47757812 178.13696289 400.51757812 C188.69696289 400.51757812 199.25696289 400.51757812 210.13696289 400.51757812 C210.13696289 382.03757812 210.13696289 363.55757813 210.13696289 344.51757812 C199.57696289 344.51757812 189.01696289 344.51757812 178.13696289 344.51757812 Z " fill="#ffffff" transform="translate(61.863037109375,63.482421875)"/>
<path d="M0 0 C1.10794922 -0.01260864 2.21589844 -0.02521729 3.35742188 -0.03820801 C4.54916016 -0.03011108 5.74089844 -0.02201416 6.96875 -0.01367188 C8.19658203 -0.01749878 9.42441406 -0.02132568 10.68945312 -0.02526855 C13.28516459 -0.02799029 15.88090336 -0.02061099 18.4765625 -0.00390625 C22.45374599 0.01749738 26.42912282 -0.0037015 30.40625 -0.02929688 C32.92708733 -0.02665365 35.44792353 -0.02152878 37.96875 -0.01367188 C39.16048828 -0.0217688 40.35222656 -0.02986572 41.58007812 -0.03820801 C43.24200195 -0.01929504 43.24200195 -0.01929504 44.9375 0 C45.91138672 0.00318237 46.88527344 0.00636475 47.88867188 0.00964355 C51.20990543 0.66348784 52.38554506 1.9006411 54.46875 4.51757812 C57.49671585 14.22795138 58.13804036 25.07313784 59.5625 35.11132812 C59.74651367 36.40393555 59.93052734 37.69654297 60.12011719 39.02832031 C60.5703032 42.19131556 61.01983157 45.35440277 61.46875 48.51757812 C63.23352629 48.51204737 63.23352629 48.51204737 65.03395462 48.50640488 C92.95068073 48.41980756 120.86739638 48.35383317 148.78422858 48.31331681 C152.21894559 48.30831387 155.65366232 48.30313659 159.08837891 48.29785156 C159.77218045 48.29680232 160.45598199 48.29575308 161.16050479 48.29467204 C172.23823963 48.27725815 183.3158916 48.24571509 194.39357725 48.20896694 C205.75699997 48.17158479 217.1203612 48.14964756 228.48384929 48.14122415 C234.86797009 48.13600025 241.2519028 48.12368574 247.63596344 48.0946579 C253.64084216 48.06757454 259.64545472 48.05911886 265.65038872 48.0651474 C267.85792676 48.06404399 270.0654734 48.05604828 272.27295876 48.04075623 C275.280305 48.02093943 278.28663807 48.02560884 281.29400635 48.03656006 C282.17338214 48.02490869 283.05275794 48.01325733 283.95878148 48.00125289 C287.7811235 48.03903782 289.82107512 48.06594801 293.01561642 50.29353333 C295.84811561 54.62871982 294.93556008 59.15557302 293.96643639 64.05922699 C293.26761456 66.88392696 292.48439306 69.67207156 291.6706543 72.46582031 C291.37311249 73.52224228 291.07557068 74.57866425 290.76901245 75.667099 C289.7885901 79.13629427 288.79122541 82.60035145 287.79296875 86.06445312 C287.10430358 88.48318421 286.41647532 90.90215373 285.72944641 93.3213501 C284.29001409 98.38027721 282.84280596 103.43691117 281.38891602 108.49169922 C279.71083675 114.3262633 278.04631035 120.1645597 276.38923138 126.00512004 C274.79009689 131.64066908 273.18256461 137.27378694 271.57102394 142.90579987 C270.88775953 145.29586954 270.20641045 147.68648762 269.52701378 150.07765961 C268.57690621 153.41619997 267.61732681 156.75187003 266.6550293 160.08691406 C266.37594223 161.07402878 266.09685516 162.06114349 265.80931091 163.07817078 C263.29141649 171.73533492 263.29141649 171.73533492 260.46875 175.51757812 C257.49657116 177.00366755 254.82607005 176.64017878 251.50863647 176.63783264 C250.42189005 176.63911428 250.42189005 176.63911428 249.31318915 176.64042181 C246.87331879 176.64207552 244.43351642 176.63655701 241.99365234 176.63110352 C240.24953717 176.63082159 238.50542187 176.63097947 236.76130676 176.63154602 C232.01569845 176.6318338 227.27011523 176.62594017 222.52451277 176.61897206 C217.56904698 176.61273534 212.61358067 176.61213447 207.65811157 176.61094666 C198.26939968 176.60783428 188.88069938 176.59962216 179.49199259 176.58959717 C168.80533128 176.57843312 158.11866942 176.57292484 147.43200374 176.56790173 C125.44424601 176.55743947 103.45649873 176.53984184 81.46875 176.51757812 C81.58992188 177.27377441 81.71109375 178.0299707 81.8359375 178.80908203 C82.3849955 182.25283715 82.92693754 185.69767594 83.46875 189.14257812 C83.65953125 190.33238281 83.8503125 191.5221875 84.046875 192.74804688 C84.22734375 193.90175781 84.4078125 195.05546875 84.59375 196.24414062 C84.76132812 197.30197754 84.92890625 198.35981445 85.1015625 199.44970703 C85.46719148 202.50455663 85.53319822 205.44420374 85.46875 208.51757812 C86.6769232 208.51204737 86.6769232 208.51204737 87.90950394 208.50640488 C107.49705554 208.4181134 127.08456749 208.35189755 146.67227554 208.31032944 C156.14470816 208.28969371 165.61700804 208.26155384 175.08935547 208.21582031 C183.34431189 208.17598344 191.59917219 208.15015267 199.85422206 208.14122415 C204.22629234 208.13600403 208.59808764 208.12371407 212.97006989 208.0946579 C217.08391339 208.06753843 221.19736824 208.05912601 225.31129265 208.0651474 C226.82221271 208.0640456 228.33314557 208.05607081 229.84398842 208.04075623 C231.90560649 208.02088116 233.96575335 208.02562799 236.02740479 208.03656006 C237.1814896 208.03287289 238.33557442 208.02918571 239.5246315 208.02538681 C243.10209396 208.62345919 244.26944597 209.69202423 246.46875 212.51757812 C247 214.51757813 247 214.51757813 246.96875 216.51757812 C246.98421875 217.50757813 246.98421875 217.50757813 247 218.51757812 C246.16481909 221.66178863 245.17107552 222.65669528 242.46875 224.51757812 C239.05857956 225.14942708 235.68052079 225.21424552 232.21875 225.26757812 C231.28289062 225.29722656 230.34703125 225.326875 229.3828125 225.35742188 C227.07803908 225.42797616 224.77426832 225.48074064 222.46875 225.51757812 C222.51515625 226.43539062 222.5615625 227.35320312 222.609375 228.29882812 C223.00838487 241.86516368 223.00838487 241.86516368 218.46875 247.51757812 C213.66426361 252.56279034 209.30697945 256.12320807 202.19921875 256.85351562 C193.68298427 256.94741016 187.79279506 256.63530692 181.50390625 250.64648438 C173.92334457 242.44583585 174.46875 237.76848561 174.46875 225.51757812 C163.90875 225.51757812 153.34875 225.51757812 142.46875 225.51757812 C142.46875 230.13757813 142.46875 234.75757813 142.46875 239.51757812 C139.98004127 246.8800081 135.13795354 252.16730789 128.140625 255.68945312 C121.66660035 257.69602217 113.29597423 257.79371082 107.03125 255.01757812 C101.23720005 251.51622751 96.42384082 246.0220149 94.46875 239.51757812 C94.2734375 235.96679688 94.2734375 235.96679688 94.34375 232.20507812 C94.36179687 230.95082031 94.37984375 229.6965625 94.3984375 228.40429688 C94.42164063 227.45167969 94.44484375 226.4990625 94.46875 225.51757812 C93.59138184 225.50355957 93.59138184 225.50355957 92.69628906 225.48925781 C90.0362642 225.43544533 87.37797778 225.35182363 84.71875 225.26757812 C83.79835938 225.25339844 82.87796875 225.23921875 81.9296875 225.22460938 C81.04023438 225.19238281 80.15078125 225.16015625 79.234375 225.12695312 C78.41743164 225.10600586 77.60048828 225.08505859 76.75878906 225.06347656 C73.57929158 224.30554944 72.52463265 223.0515958 70.46875 220.51757812 C69.52421093 217.27482033 69.52421093 217.27482033 68.90068054 213.41934204 C68.78277843 212.71689004 68.66487632 212.01443803 68.54340142 211.2906996 C68.16920392 209.03526358 67.81819096 206.77696887 67.46875 204.51757812 C67.23370118 203.06715821 66.99756614 201.61691389 66.76032448 200.16685104 C66.00066646 195.47822646 65.27857678 190.7840965 64.55786133 186.08935547 C64.28176925 184.30361758 64.00546176 182.51791298 63.72895813 180.73223877 C62.9869879 175.93579937 62.24832316 171.13885682 61.5105536 166.3417697 C60.89254766 162.32508892 60.27302704 158.3086423 59.65356177 154.29218638 C58.1930849 144.82228604 56.73545769 135.35195006 55.27954102 125.88134766 C53.77910966 116.12157751 52.27337855 106.36263502 50.76516134 96.6040653 C49.46676036 88.20166763 48.17183717 79.79873889 46.87966174 71.39538157 C46.10934435 66.38612484 45.33766415 61.37708764 44.56254005 56.36857224 C43.83539359 51.66918823 43.11258384 46.96915747 42.39311028 42.26859283 C42.12861252 40.54542044 41.8625773 38.82248322 41.59488678 37.09980392 C41.22959682 34.74744249 40.8698855 32.39429252 40.5115509 30.04086304 C40.40465071 29.36110141 40.29775052 28.68133979 40.18761092 27.98097932 C39.60752612 24.1249189 39.36833116 20.41537373 39.46875 16.51757812 C38.63642853 16.53090179 38.63642853 16.53090179 37.78729248 16.54449463 C32.01243389 16.63298406 26.23776784 16.69331866 20.46240234 16.73730469 C18.30704933 16.75742088 16.15175089 16.78471737 13.99658203 16.81933594 C10.89862605 16.86785298 7.80139154 16.89054686 4.703125 16.90820312 C3.73945007 16.92884827 2.77577515 16.94949341 1.78289795 16.97076416 C-4.90629236 16.9730081 -4.90629236 16.9730081 -8.13769531 14.61816406 C-9.63890663 12.35530103 -10.07330975 11.20940221 -10.03125 8.51757812 C-10.04671875 7.52757812 -10.04671875 7.52757812 -10.0625 6.51757812 C-8.67664018 1.3002235 -4.95665502 0.01619688 0 0 Z M63.46875 64.51757812 C68.29392408 97.60292407 68.29392408 97.60292407 73.28442383 130.66259766 C73.80266018 134.0317706 74.3163589 137.40162 74.83007812 140.77148438 C75.16379649 142.94470232 75.49776925 145.11788123 75.83203125 147.29101562 C75.98303787 148.28434906 76.13404449 149.2776825 76.28962708 150.30111694 C76.43035141 151.20963409 76.57107574 152.11815125 76.71606445 153.05419922 C76.83786575 153.8476474 76.95966705 154.64109558 77.0851593 155.45858765 C77.45489259 157.70455304 77.45489259 157.70455304 78.46875 160.51757812 C134.56875 160.51757812 190.66875 160.51757812 248.46875 160.51757812 C252.92375 144.86320312 257.37875 129.20882812 261.96875 113.08007812 C263.37833984 108.12951416 264.78792969 103.1789502 266.24023438 98.07836914 C267.49779466 93.65696353 267.49779466 93.65696353 268.75500488 89.23545837 C269.31702176 87.25953151 269.87956087 85.28375313 270.44250488 83.30809021 C271.29296449 80.32300683 272.14178808 77.33746278 272.99023438 74.35180664 C273.24318016 73.46541032 273.49612595 72.579014 273.75673676 71.66575718 C274.94312499 68.14264724 274.94312499 68.14264724 275.46875 64.51757812 C205.50875 64.51757812 135.54875 64.51757812 63.46875 64.51757812 Z M113.09375 227.14257812 C110.98168494 230.22944244 110.85679855 231.84586943 111.46875 235.51757812 C112.96875 238.01757812 112.96875 238.01757812 115.46875 239.51757812 C119.1404587 240.12952957 120.75688568 240.00464318 123.84375 237.89257812 C125.95581506 234.80571381 126.08070145 233.18928682 125.46875 229.51757812 C123.96875 227.01757812 123.96875 227.01757812 121.46875 225.51757812 C117.7970413 224.90562668 116.18061432 225.03051307 113.09375 227.14257812 Z M193.09375 227.14257812 C190.98168494 230.22944244 190.85679855 231.84586943 191.46875 235.51757812 C192.96875 238.01757812 192.96875 238.01757812 195.46875 239.51757812 C199.1404587 240.12952957 200.75688568 240.00464318 203.84375 237.89257812 C205.95581506 234.80571381 206.08070145 233.18928682 205.46875 229.51757812 C203.96875 227.01757812 203.96875 227.01757812 201.46875 225.51757812 C197.7970413 224.90562668 196.18061432 225.03051307 193.09375 227.14257812 Z " fill="#ffffff" transform="translate(201.53125,31.482421875)"/>
<path d="M0 0 C0.77444458 -0.00700928 1.54888916 -0.01401855 2.34680176 -0.02124023 C4.90344232 -0.03882686 7.45897344 -0.02719576 10.015625 -0.01367188 C11.79394747 -0.01636661 13.57226851 -0.02024888 15.35058594 -0.02526855 C19.07631468 -0.03116448 22.80165964 -0.02259774 26.52734375 -0.00390625 C31.30261787 0.01888354 36.07699276 0.00576094 40.85223389 -0.01819611 C44.52399468 -0.03265162 48.19554235 -0.02804927 51.86730957 -0.01768494 C53.62797146 -0.01501696 55.38865271 -0.01828992 57.14929199 -0.02760315 C59.61046587 -0.03776495 62.0701845 -0.0222744 64.53125 0 C65.2586438 -0.00809692 65.9860376 -0.01619385 66.73547363 -0.02453613 C70.17906688 0.03319039 71.96216633 0.28135145 74.71582031 2.42492676 C76.39732531 4.69540881 76.80921353 5.72791231 76.765625 8.51757812 C76.78109375 9.50757813 76.78109375 9.50757813 76.796875 10.51757812 C75.99974611 13.51853394 74.71165797 14.61346966 72.265625 16.51757812 C69.55182754 16.91240719 67.2431129 17.06534313 64.53125 17.03515625 C63.36958313 17.04567017 63.36958313 17.04567017 62.18444824 17.05639648 C59.62780768 17.07398311 57.07227656 17.06235201 54.515625 17.04882812 C52.73730253 17.05152286 50.95898149 17.05540513 49.18066406 17.0604248 C45.45493532 17.06632073 41.72959036 17.05775399 38.00390625 17.0390625 C33.22863213 17.01627271 28.45425724 17.02939531 23.67901611 17.05335236 C20.00725532 17.06780787 16.33570765 17.06320552 12.66394043 17.05284119 C10.90327854 17.05017321 9.14259729 17.05344617 7.38195801 17.0627594 C4.92078413 17.0729212 2.4610655 17.05743065 0 17.03515625 C-0.7273938 17.04325317 -1.4547876 17.0513501 -2.20422363 17.05969238 C-5.64781688 17.00196586 -7.43091633 16.7538048 -10.18457031 14.61022949 C-11.86607531 12.33974744 -12.27796353 11.30724394 -12.234375 8.51757812 C-12.24984375 7.52757812 -12.24984375 7.52757812 -12.265625 6.51757812 C-10.59962649 0.24558375 -5.60949142 -0.06244159 0 0 Z " fill="#ffffff" transform="translate(123.734375,159.482421875)"/>
<path d="M0 0 C1.26811523 -0.01260864 2.53623047 -0.02521729 3.84277344 -0.03820801 C5.22331295 -0.03104817 6.60384739 -0.02284418 7.984375 -0.01367188 C9.40397406 -0.0163675 10.82357131 -0.02025051 12.24316406 -0.02526855 C15.21567394 -0.03116045 18.18770241 -0.02261142 21.16015625 -0.00390625 C24.96696287 0.01888413 28.77264149 0.00575925 32.57940674 -0.01819611 C35.51001456 -0.03266301 38.44035574 -0.02804423 41.37097168 -0.01768494 C42.77437474 -0.01502007 44.17780215 -0.01827905 45.58117676 -0.02760315 C47.54369635 -0.03778128 49.50630102 -0.01951228 51.46875 0 C52.58475586 0.00318237 53.70076172 0.00636475 54.85058594 0.00964355 C58.37643133 0.63066636 59.55273304 1.73650375 61.734375 4.51757812 C62.265625 6.51757812 62.265625 6.51757812 62.234375 8.51757812 C62.24984375 9.50757813 62.24984375 9.50757813 62.265625 10.51757812 C61.48338263 13.46249057 60.08885796 14.61339613 57.734375 16.51757812 C54.85058594 17.0255127 54.85058594 17.0255127 51.46875 17.03515625 C50.20063477 17.04776489 48.93251953 17.06037354 47.62597656 17.07336426 C46.24543705 17.06620442 44.86490261 17.05800043 43.484375 17.04882812 C42.06477594 17.05152375 40.64517869 17.05540676 39.22558594 17.0604248 C36.25307606 17.0663167 33.28104759 17.05776767 30.30859375 17.0390625 C26.50178713 17.01627212 22.69610851 17.029397 18.88934326 17.05335236 C15.95873544 17.06781926 13.02839426 17.06320048 10.09777832 17.05284119 C8.69437526 17.05017632 7.29094785 17.0534353 5.88757324 17.0627594 C3.92505365 17.07293753 1.96244898 17.05466853 0 17.03515625 C-1.11600586 17.03197388 -2.23201172 17.0287915 -3.38183594 17.0255127 C-6.90768133 16.40448989 -8.08398304 15.2986525 -10.265625 12.51757812 C-10.796875 10.51757812 -10.796875 10.51757812 -10.765625 8.51757812 C-10.78109375 7.52757812 -10.78109375 7.52757812 -10.796875 6.51757812 C-9.30398497 0.89728626 -5.23640274 0.01493199 0 0 Z " fill="#ffffff" transform="translate(162.265625,207.482421875)"/>
<path d="M0 0 C1.26811523 -0.01260864 2.53623047 -0.02521729 3.84277344 -0.03820801 C5.22331295 -0.03104817 6.60384739 -0.02284418 7.984375 -0.01367188 C9.40397406 -0.0163675 10.82357131 -0.02025051 12.24316406 -0.02526855 C15.21567394 -0.03116045 18.18770241 -0.02261142 21.16015625 -0.00390625 C24.96696287 0.01888413 28.77264149 0.00575925 32.57940674 -0.01819611 C35.51001456 -0.03266301 38.44035574 -0.02804423 41.37097168 -0.01768494 C42.77437474 -0.01502007 44.17780215 -0.01827905 45.58117676 -0.02760315 C47.54369635 -0.03778128 49.50630102 -0.01951228 51.46875 0 C52.58475586 0.00318237 53.70076172 0.00636475 54.85058594 0.00964355 C58.37643133 0.63066636 59.55273304 1.73650375 61.734375 4.51757812 C62.265625 6.51757812 62.265625 6.51757812 62.234375 8.51757812 C62.24984375 9.50757812 62.24984375 9.50757812 62.265625 10.51757812 C61.48338263 13.46249057 60.08885796 14.61339613 57.734375 16.51757812 C54.85058594 17.0255127 54.85058594 17.0255127 51.46875 17.03515625 C50.20063477 17.04776489 48.93251953 17.06037354 47.62597656 17.07336426 C46.24543705 17.06620442 44.86490261 17.05800043 43.484375 17.04882812 C42.06477594 17.05152375 40.64517869 17.05540676 39.22558594 17.0604248 C36.25307606 17.0663167 33.28104759 17.05776767 30.30859375 17.0390625 C26.50178713 17.01627212 22.69610851 17.029397 18.88934326 17.05335236 C15.95873544 17.06781926 13.02839426 17.06320048 10.09777832 17.05284119 C8.69437526 17.05017632 7.29094785 17.0534353 5.88757324 17.0627594 C3.92505365 17.07293753 1.96244898 17.05466853 0 17.03515625 C-1.11600586 17.03197388 -2.23201172 17.0287915 -3.38183594 17.0255127 C-6.90768133 16.40448989 -8.08398304 15.2986525 -10.265625 12.51757812 C-10.796875 10.51757812 -10.796875 10.51757812 -10.765625 8.51757812 C-10.78109375 7.52757813 -10.78109375 7.52757813 -10.796875 6.51757812 C-9.30398497 0.89728626 -5.23640274 0.01493199 0 0 Z " fill="#ffffff" transform="translate(162.265625,103.482421875)"/>
</svg>