<svg version="1.1" xmlns="http://www.w3.org/2000/svg" width="512px" height="512px" transform="rotate(0) scale(1, 1)">
<path d="M0 0 C0.70432271 -0.00350607 1.40864541 -0.00701215 2.13431123 -0.01062447 C4.48226688 -0.01989022 6.82997186 -0.01502775 9.17793751 -0.01015663 C10.88324634 -0.01389533 12.58855346 -0.01849773 14.29385787 -0.02388728 C18.97095638 -0.0361056 23.64798329 -0.03585818 28.3250941 -0.03349853 C33.37297691 -0.03309006 38.42083686 -0.04413236 43.46870899 -0.05361366 C53.35537958 -0.07021845 63.24202633 -0.07572298 73.1287097 -0.07683842 C81.16664557 -0.07778918 89.20457359 -0.08190088 97.24250698 -0.08823967 C120.03912892 -0.10585099 142.83573204 -0.11507876 165.63236084 -0.11357872 C166.86103838 -0.11349881 168.08971592 -0.1134189 169.35562611 -0.11333656 C170.58580657 -0.1132548 171.81598704 -0.11317304 173.08344571 -0.1130888 C193.01695483 -0.11227603 212.95038837 -0.13141182 232.88387563 -0.1596133 C253.35889175 -0.18835197 273.83387101 -0.20215303 294.30890781 -0.20042574 C305.80105711 -0.19976216 317.29312718 -0.20524048 328.78525829 -0.22678185 C338.57061411 -0.24500658 348.35585478 -0.24933034 358.14122023 -0.235763 C363.13119856 -0.22923981 368.12095606 -0.22909277 373.11091328 -0.2464695 C377.68503789 -0.26223393 382.25876721 -0.25930223 386.83288238 -0.24190123 C388.48158682 -0.23883875 390.13032101 -0.24243522 391.77899035 -0.25362138 C409.8263504 -0.36789541 425.01094372 4.27536612 438.305089 16.91742516 C448.89923204 27.78367804 455.8262335 41.28574555 455.8436079 56.67092991 C455.84711398 57.37525261 455.85062005 58.07957532 455.85423237 58.80524114 C455.86349812 61.15319679 455.85863565 63.50090177 455.85376453 65.84886742 C455.85750323 67.55417625 455.86210563 69.25948337 455.86749518 70.96478778 C455.8797135 75.64188629 455.87946608 80.3189132 455.87710643 84.99602401 C455.87669796 90.04390682 455.88774026 95.09176677 455.89722157 100.1396389 C455.91382636 110.02630949 455.91933089 119.91295623 455.92044632 129.7996396 C455.92139708 137.83757548 455.92550878 145.8755035 455.93184757 153.91343689 C455.94945889 176.71005883 455.95868666 199.50666195 455.95718662 222.30329075 C455.95706676 224.14630705 455.95706676 224.14630705 455.95694447 226.02655602 C455.9568627 227.25673648 455.95678094 228.48691695 455.9566967 229.75437561 C455.95588393 249.68788474 455.97501972 269.62131828 456.0032212 289.55480554 C456.03195987 310.02982166 456.04576094 330.50480092 456.04403365 350.97983772 C456.04337007 362.47198702 456.04884839 373.96405708 456.07038975 385.4561882 C456.08861449 395.24154402 456.09293824 405.02678469 456.0793709 414.81215014 C456.07284771 419.80212846 456.07270067 424.79188596 456.0900774 429.78184319 C456.10584183 434.3559678 456.10291013 438.92969712 456.08550914 443.50381229 C456.08244665 445.15251673 456.08604312 446.80125092 456.09722929 448.44992026 C456.21150331 466.4972803 451.56824178 481.68187363 438.92618275 494.97601891 C428.05992986 505.57016195 414.55786235 512.49716341 399.17267799 512.51453781 C398.46835529 512.51804389 397.76403258 512.52154996 397.03836676 512.52516228 C394.69041111 512.53442803 392.34270613 512.52956556 389.99474049 512.52469444 C388.28943165 512.52843314 386.58412453 512.53303554 384.87882012 512.53842509 C380.20172162 512.55064341 375.52469471 512.55039599 370.84758389 512.54803634 C365.79970108 512.54762787 360.75184113 512.55867017 355.703969 512.56815147 C345.81729841 512.58475626 335.93065167 512.59026079 326.0439683 512.59137623 C318.00603242 512.59232699 309.9681044 512.59643869 301.93017101 512.60277748 C279.13354907 512.6203888 256.33694595 512.62961657 233.54031716 512.62811653 C232.31163962 512.62803662 231.08296208 512.62795671 229.81705189 512.62787437 C228.58687142 512.62779261 227.35669095 512.62771085 226.08923229 512.62762661 C206.15572316 512.62681384 186.22228963 512.64594963 166.28880236 512.67415111 C145.81378625 512.70288978 125.33880698 512.71669085 104.86377019 512.71496356 C93.37162089 512.71429997 81.87955082 512.7197783 70.3874197 512.74131966 C60.60206388 512.7595444 50.81682321 512.76386815 41.03145776 512.75030081 C36.04147944 512.74377762 31.05172194 512.74363058 26.06176472 512.76100731 C21.4876401 512.77677174 16.91391078 512.77384004 12.33979561 512.75643905 C10.69109117 512.75337656 9.04235698 512.75697303 7.39368764 512.7681592 C-10.6536724 512.88243322 -25.83826573 508.23917169 -39.132411 495.59711266 C-49.72655405 484.73085977 -56.65355551 471.22879226 -56.67092991 455.8436079 C-56.67443598 455.1392852 -56.67794206 454.43496249 -56.68155438 453.70929667 C-56.69082013 451.36134102 -56.68595765 449.01363604 -56.68108654 446.66567039 C-56.68482524 444.96036156 -56.68942764 443.25505444 -56.69481719 441.54975003 C-56.70703551 436.87265153 -56.70678809 432.19562462 -56.70442843 427.5185138 C-56.70401997 422.47063099 -56.71506227 417.42277104 -56.72454357 412.37489891 C-56.74114836 402.48822832 -56.74665289 392.60158158 -56.74776833 382.71489821 C-56.74871909 374.67696233 -56.75283079 366.63903431 -56.75916958 358.60110092 C-56.7767809 335.80447898 -56.78600867 313.00787586 -56.78450863 290.21124706 C-56.78442872 288.98256953 -56.78434881 287.75389199 -56.78426647 286.4879818 C-56.78418471 285.25780133 -56.78410295 284.02762086 -56.78401871 282.7601622 C-56.78320594 262.82665307 -56.80234173 242.89321954 -56.83054321 222.95973227 C-56.85928188 202.48471616 -56.87308294 182.00973689 -56.87135565 161.5347001 C-56.87069207 150.0425508 -56.87617039 138.55048073 -56.89771175 127.05834961 C-56.91593649 117.27299379 -56.92026025 107.48775312 -56.90669291 97.70238767 C-56.90016972 92.71240935 -56.90002267 87.72265185 -56.91739941 82.73269463 C-56.93316383 78.15857001 -56.93023214 73.58484069 -56.91283114 69.01072552 C-56.90976865 67.36202108 -56.91336513 65.71328689 -56.92455129 64.06461755 C-57.03882532 46.01725751 -52.39556379 30.83266418 -39.75350475 17.53851891 C-28.88725187 6.94437586 -15.38518436 0.0173744 0 0 Z M-18.726161 40.50726891 C-35.09639253 61.42478697 -26.413661 101.18406178 -26.413661 120.25726891 C122.746339 120.25726891 271.906339 120.25726891 425.586339 120.25726891 C430.16238712 81.20570576 430.16238712 81.20570576 417.01993275 39.50336266 C408.8605402 31.94977188 399.50007358 30.13510806 388.63092804 30.12863445 C387.96400461 30.12688142 387.29708118 30.12512838 386.60994795 30.12332222 C384.38328178 30.11868374 382.15668153 30.12112214 379.9300127 30.12355614 C378.31417596 30.12168708 376.69833967 30.119386 375.08250409 30.11669081 C370.64820357 30.11057813 366.21392192 30.11070578 361.77961814 30.11188519 C356.99490784 30.11208933 352.21020358 30.10656918 347.4254961 30.10182762 C338.05372028 30.09352352 328.68195076 30.09077289 319.31017157 30.09021524 C311.69219241 30.08973999 304.07421534 30.08768476 296.45623684 30.08451462 C274.85593832 30.07570885 253.25564477 30.07109514 231.65534445 30.07184509 C230.49102724 30.07188505 229.32671003 30.071925 228.12711048 30.07196617 C226.96137111 30.07200705 225.79563173 30.07204793 224.59456692 30.07209005 C205.7001022 30.07249654 186.80565741 30.06292599 167.91119846 30.0488278 C148.50861423 30.03446475 129.10603971 30.02755758 109.70345002 30.02842158 C98.81111962 30.02875357 87.91881011 30.02600581 77.02648449 30.01524353 C67.75304779 30.00613949 58.47964146 30.00396251 49.20620223 30.01075295 C44.47589605 30.01401858 39.74564813 30.01407327 35.01534748 30.0053997 C30.68199418 29.99753578 26.34874535 29.99896507 22.01539461 30.00768384 C20.45083285 30.00921905 18.8862633 30.00740186 17.32171073 30.00182376 C4.05647527 29.95767534 -9.10792666 30.11764735 -18.726161 40.50726891 Z M-26.413661 150.25726891 C-26.454911 199.88101891 -26.496161 249.50476891 -26.538661 300.63226891 C-26.55686901 316.3077523 -26.57507702 331.9832357 -26.59383678 348.13373375 C-26.60052518 362.17104105 -26.60052518 362.17104105 -26.60454845 376.20834923 C-26.6064136 382.46625839 -26.61375031 388.72413184 -26.62481213 394.98203087 C-26.63755456 402.20138282 -26.64333012 409.42070052 -26.6405509 416.6400638 C-26.63934752 420.33203533 -26.64123835 424.02393034 -26.65209126 427.71588778 C-26.66365512 431.67383256 -26.65963999 435.63167604 -26.65417004 439.58963585 C-26.65999537 440.73524294 -26.66582069 441.88085003 -26.67182255 443.06117249 C-26.63073795 454.12467135 -25.47893818 464.46597351 -17.84725475 473.01117516 C-9.68786221 480.56476593 -0.32739558 482.37942975 10.54174995 482.38590336 C11.5421351 482.38853291 11.5421351 482.38853291 12.56273004 482.39121559 C14.78939621 482.39585408 17.01599647 482.39341567 19.24266529 482.39098167 C20.85850203 482.39285073 22.47433832 482.39515181 24.0901739 482.397847 C28.52447442 482.40395968 32.95875608 482.40383203 37.39305985 482.40265262 C42.17777015 482.40244848 46.96247441 482.40796863 51.74718189 482.41271019 C61.11895771 482.42101429 70.49072724 482.42376492 79.86250643 482.42432257 C87.48048558 482.42479782 95.09846266 482.42685305 102.71644115 482.43002319 C124.31673967 482.43882896 145.91703322 482.44344267 167.51733354 482.44269272 C168.68165075 482.44265276 169.84596796 482.44261281 171.04556751 482.44257164 C172.21130689 482.44253076 173.37704626 482.44248988 174.57811107 482.44244776 C193.47257579 482.44204127 212.36702058 482.45161182 231.26147953 482.46571001 C250.66406377 482.48007306 270.06663828 482.48698024 289.46922797 482.48611623 C300.36155837 482.48578425 311.25386789 482.48853201 322.1461935 482.49929428 C331.4196302 482.50839832 340.69303653 482.5105753 349.96647576 482.50378486 C354.69678195 482.50051924 359.42702987 482.50046455 364.15733051 482.50913811 C368.49068381 482.51700203 372.82393264 482.51557274 377.15728339 482.50685398 C378.72184515 482.50531876 380.2864147 482.50713595 381.85096727 482.51271405 C394.38386978 482.55442517 406.518346 482.46275931 416.34024525 473.69086266 C425.42519006 463.87730072 425.73860713 452.63801359 425.70659351 439.9503994 C425.70744953 438.71416832 425.70830555 437.47793724 425.70918751 436.20424461 C425.71055221 432.77818609 425.70742525 429.35218494 425.70241173 425.92613335 C425.69803841 422.17283118 425.69950678 418.41953041 425.70022964 414.66622639 C425.70076086 407.38367665 425.69614781 400.10113926 425.68972832 392.81859269 C425.68252394 384.39316161 425.68173332 375.96773793 425.68094349 367.54230309 C425.67569469 345.3014564 425.66173356 323.06061247 425.648839 300.81976891 C425.628214 251.13414391 425.607589 201.44851891 425.586339 150.25726891 C276.426339 150.25726891 127.266339 150.25726891 -26.413661 150.25726891 Z " fill="#ffffff" transform="translate(56.41366100311279,-0.25726890563964844)"/>
<path d="M0 0 C0.98084564 -0.0098568 0.98084564 -0.0098568 1.98150635 -0.01991272 C4.14945591 -0.03965136 6.3173361 -0.05131086 8.48535156 -0.0612793 C9.22624275 -0.06535482 9.96713394 -0.06943035 10.73047638 -0.07362938 C14.65364809 -0.0944948 18.57678479 -0.10879315 22.5 -0.11816406 C26.54642069 -0.12921598 30.59228955 -0.16359973 34.63851547 -0.20333576 C37.75442504 -0.22952424 40.87020374 -0.23785795 43.98621368 -0.24144554 C45.47731493 -0.24630757 46.96841049 -0.25791075 48.45940399 -0.27648354 C50.55150069 -0.30091931 52.64217831 -0.29990278 54.734375 -0.29296875 C55.92303162 -0.29883499 57.11168823 -0.30470123 58.33636475 -0.31074524 C62.94564621 0.37266795 66.17635366 2.25882153 69.00396729 6.00039673 C71.27055903 10.96991419 72.78790711 15.87544543 73.98535156 21.20043945 C74.17945618 22.02782623 74.37356079 22.85521301 74.57354736 23.70767212 C75.18378355 26.3203635 75.77980108 28.93607085 76.37597656 31.55200195 C76.79046762 33.32954962 77.20582447 35.10689563 77.62207031 36.8840332 C78.01476072 38.57265796 78.40671465 40.26145419 78.79785156 41.95043945 C78.98216736 42.74622406 79.16648315 43.54200867 79.35638428 44.36190796 C80.62597656 49.9390182 80.62597656 49.9390182 80.62597656 52.17700195 C82.13092949 52.1714712 82.13092949 52.1714712 83.66628551 52.1658287 C108.11390468 52.0769077 132.56150279 52.01124073 157.00924969 51.96975327 C168.83215277 51.94915537 180.65494883 51.92108779 192.4777832 51.87524414 C202.78630088 51.8352915 213.09474101 51.809549 223.40333396 51.80064797 C228.85828334 51.79544751 234.31301094 51.78328237 239.76788902 51.75408173 C244.91017211 51.72677943 250.05214365 51.71858676 255.19449234 51.72457123 C257.07412857 51.72347759 258.95377604 51.71561253 260.83334923 51.70018005 C277.38215198 51.57105534 291.2739384 53.9033011 304.06347656 65.3605957 C314.56376362 76.16241128 320.22157472 89.91429529 320.11048889 104.96253967 C319.90860562 110.73384255 318.88391655 115.83427489 317.21582031 121.34887695 C316.82504555 122.67815468 316.82504555 122.67815468 316.42637634 124.0342865 C312.04609198 138.72432254 307.15362058 153.26858229 302.33862305 167.82128906 C301.45766368 170.48507068 300.58220681 173.15054079 299.7127533 175.81809998 C298.90225117 178.30386139 298.08353455 180.7869632 297.25563049 183.26698303 C296.71397499 184.93669411 296.71397499 184.93669411 296.16137695 186.64013672 C295.67889244 188.10399559 295.67889244 188.10399559 295.18666077 189.59742737 C294.60073507 192.29313205 294.64516604 193.63064815 295.62597656 196.17700195 C296.68400549 197.70989426 297.79445767 199.2071704 298.93847656 200.67700195 C306.65633524 211.60269489 308.01323317 223.13618272 306.62597656 236.17700195 C304.37719104 247.99310574 297.52406708 258.3334655 287.62597656 265.17700195 C274.9064303 272.41257396 262.1968492 274.54377364 247.73535156 271.3059082 C235.70318454 266.95779097 225.68320977 258.60843573 219.81347656 247.17700195 C214.97891519 235.63488688 215.57956001 225.45550127 217.62597656 213.17700195 C199.80597656 212.84700195 181.98597656 212.51700195 163.62597656 212.17700195 C164.28597656 214.15700195 164.94597656 216.13700195 165.62597656 218.17700195 C167.49341499 231.95210657 164.97904851 244.7645126 156.52832031 255.9309082 C149.58016596 264.1345812 139.55203083 271.35080595 128.54223633 272.36987305 C114.05828274 272.89436604 102.12729866 271.84983121 90.61816406 262.0480957 C79.47703093 251.5841687 75.24366321 240.31785749 74.62597656 225.17700195 C74.92365062 217.13980228 77.26848953 211.16451027 81.48144531 204.35668945 C84.02385097 197.29348738 81.29968108 188.97866728 79.53149414 181.89013672 C79.21350483 180.58010052 79.21350483 180.58010052 78.88909149 179.24359894 C78.18921937 176.36695081 77.47986676 173.49273024 76.77050781 170.6184082 C76.27078599 168.57180446 75.77171054 166.52504281 75.27323914 164.47813416 C74.21583706 160.14099485 73.15446502 155.80485525 72.08984375 151.46948242 C70.43455729 144.72789975 68.78885505 137.98400366 67.14550781 131.23950195 C66.73826257 129.56828687 66.73826257 129.56828687 66.32279015 127.86330986 C65.77591262 125.61905257 65.2290598 123.37478925 64.6822319 121.13051987 C63.86508053 117.77803351 63.04710678 114.42574878 62.22891235 111.07351685 C58.11097672 94.19802341 54.02979428 77.31419028 50.01425171 60.41403198 C49.42424953 57.93185529 48.83280907 55.45002 48.23989868 52.96853638 C47.43803642 49.61175487 46.64055252 46.25396888 45.84472656 42.89575195 C45.6146843 41.93499252 45.38464203 40.97423309 45.14762878 39.98435974 C44.94390152 39.11916214 44.74017426 38.25396454 44.53027344 37.36254883 C44.35395386 36.61968628 44.17763428 35.87682373 43.99597168 35.1114502 C43.62597656 33.17700195 43.62597656 33.17700195 43.62597656 30.17700195 C43.01289642 30.1858844 42.39981628 30.19476685 41.76815796 30.20391846 C35.37662089 30.29253878 28.98525889 30.35279726 22.59326172 30.39672852 C20.209075 30.41682089 17.82493741 30.44409977 15.44091797 30.47875977 C12.01029318 30.52738054 8.58032101 30.54999507 5.14941406 30.56762695 C4.08669281 30.58827209 3.02397156 30.60891724 1.92904663 30.63018799 C-4.17982648 30.63203255 -7.72707446 30.26358634 -12.37402344 26.17700195 C-15.91983379 22.14211431 -16.67762522 18.61038786 -16.58886719 13.2355957 C-16.11209369 8.66723878 -14.14839458 5.87582469 -10.81152344 2.86450195 C-6.9099452 0.16340933 -4.75136848 0.03945548 0 0 Z M87.62597656 83.17700195 C89.71984944 91.95109242 91.81539356 100.72478178 93.91286564 109.49801254 C94.88758206 113.57523411 95.86179845 117.65257357 96.8347168 121.73022461 C97.78008184 125.69230245 98.72696252 129.65401566 99.67474174 133.61551666 C100.0295159 135.09943932 100.3838136 136.583476 100.73753548 138.06764984 C104.24971388 152.80136539 107.95195354 167.48090987 111.62597656 182.17700195 C162.11597656 182.17700195 212.60597656 182.17700195 264.62597656 182.17700195 C273.75064131 154.9857154 273.75064131 154.9857154 282.65820312 127.72021484 C283.15283239 126.18299457 283.65317688 124.64760549 284.15820312 123.11376953 C284.9256892 120.78064038 285.67604005 118.44259976 286.42285156 116.1027832 C286.76011261 115.09505608 286.76011261 115.09505608 287.10418701 114.06697083 C289.09670224 107.70023244 289.75034307 101.31509338 287.12597656 95.05200195 C284.15919639 89.74582523 279.42136263 85.10879731 273.62597656 83.17700195 C271.14239953 83.08366012 268.687379 83.04662981 266.20393372 83.05674744 C265.4418297 83.05589301 264.67972569 83.05503859 263.89452761 83.05415827 C261.3333886 83.05250732 258.77231465 83.05801858 256.21118164 83.06347656 C254.37825014 83.06375854 252.54531852 83.06360049 250.71238708 83.06303406 C245.72924274 83.06274651 240.74612233 83.06863642 235.76298356 83.07560802 C230.55794791 83.08184858 225.35291174 83.08244591 220.14787292 83.08363342 C210.28816223 83.08674466 200.42846258 83.09495527 190.56875676 83.10498291 C179.3452021 83.11615048 168.12164692 83.12165613 156.8980881 83.12667835 C133.80737812 83.13713804 110.71667796 83.15473348 87.62597656 83.17700195 Z M107.81347656 219.55200195 C105.73582961 224.14469521 105.18147946 227.49541707 106.75097656 232.30200195 C108.58965786 236.73347807 111.35714921 239.04258828 115.62597656 241.17700195 C120.6066463 241.72344234 124.52180726 241.7190487 129.06347656 239.48950195 C132.42253668 236.45815502 134.31953287 234.43560547 134.94238281 229.8449707 C135.20811309 224.12748386 134.59444808 220.57449742 130.62597656 216.17700195 C126.7888446 212.79129728 122.99196194 212.66409023 118.06347656 212.82543945 C113.32821408 213.50841 110.63902597 215.8495579 107.81347656 219.55200195 Z M248.81347656 219.55200195 C246.73582961 224.14469521 246.18147946 227.49541707 247.75097656 232.30200195 C249.58965786 236.73347807 252.35714921 239.04258828 256.62597656 241.17700195 C261.6066463 241.72344234 265.52180726 241.7190487 270.06347656 239.48950195 C273.42253668 236.45815502 275.31953287 234.43560547 275.94238281 229.8449707 C276.20811309 224.12748386 275.59444808 220.57449742 271.62597656 216.17700195 C267.7888446 212.79129728 263.99196194 212.66409023 259.06347656 212.82543945 C254.32821408 213.50841 251.63902597 215.8495579 248.81347656 219.55200195 Z " fill="#ffffff" transform="translate(84.3740234375,179.822998046875)"/>
<path d="M0 0 C1.03726103 -0.00538554 2.07452206 -0.01077108 3.14321524 -0.01631981 C6.62396309 -0.03064392 10.10433303 -0.02348452 13.58509827 -0.01637268 C16.07853502 -0.02207389 18.57196916 -0.02903718 21.06539917 -0.03717041 C27.13812126 -0.05327674 33.21069449 -0.05519691 39.28342336 -0.04995751 C44.21938116 -0.04591597 49.15530839 -0.04735916 54.09126472 -0.05270576 C54.79379669 -0.05345419 55.49632866 -0.05420261 56.22014948 -0.05497371 C57.64734543 -0.05650519 59.07454137 -0.05804354 60.5017373 -0.05958868 C73.88548639 -0.07331641 87.26917703 -0.06787411 100.65292478 -0.05640347 C112.89621277 -0.04647069 125.13934963 -0.05941198 137.38261431 -0.08333766 C149.95533528 -0.10772197 162.52798585 -0.11733819 175.10073 -0.11068493 C182.15885186 -0.10719123 189.21685749 -0.10943468 196.27496147 -0.12693596 C202.91109683 -0.14318686 209.5469902 -0.13848669 216.18313408 -0.11963081 C218.6204167 -0.11593565 221.05772059 -0.11908022 223.49498367 -0.1295166 C226.81885051 -0.14266413 230.14175133 -0.13123332 233.46557617 -0.11352539 C234.43298939 -0.1231304 235.40040261 -0.1327354 236.39713138 -0.14263147 C242.1774371 -0.07915036 245.36680654 0.590313 249.79627991 4.38768005 C253.85258389 9.61027863 253.57025534 15.04108148 252.79627991 21.38768005 C250.62546712 25.97050704 248.37264402 28.29017625 243.79627991 30.38768005 C240.39533429 30.8301075 237.01818442 30.79659281 233.59255981 30.77536011 C232.55529879 30.78074565 231.51803776 30.78613118 230.44934458 30.79167992 C226.96859673 30.80600403 223.48822679 30.79884462 220.00746155 30.79173279 C217.51402479 30.797434 215.02059065 30.80439729 212.52716064 30.81253052 C206.45443856 30.82863685 200.38186533 30.83055701 194.30913646 30.82531761 C189.37317866 30.82127607 184.43725143 30.82271927 179.50129509 30.82806587 C178.44749714 30.82918851 178.44749714 30.82918851 177.37241034 30.83033382 C175.94521439 30.8318653 174.51801845 30.83340364 173.09082251 30.83494879 C159.70707342 30.84867652 146.32338279 30.84323422 132.93963503 30.83176357 C120.69634705 30.8218308 108.45321018 30.83477208 96.20994551 30.85869776 C83.63722453 30.88308208 71.06457396 30.8926983 58.49182981 30.88604504 C51.43370795 30.88255133 44.37570233 30.88479479 37.31759834 30.90229607 C30.68146299 30.91854696 24.04556961 30.9138468 17.40942574 30.89499092 C14.97214311 30.89129576 12.53483922 30.89444033 10.09757614 30.90487671 C6.77370931 30.91802424 3.45080849 30.90659342 0.12698364 30.8888855 C-1.32413619 30.90329301 -1.32413619 30.90329301 -2.80457157 30.91799158 C-8.58487729 30.85451046 -11.77424673 30.18504711 -16.20372009 26.38768005 C-20.26002407 21.16508148 -19.97769553 15.73427863 -19.20372009 9.38768005 C-14.99986237 0.5128693 -8.91231369 -0.05524029 0 0 Z " fill="#ffffff" transform="translate(199.20372009277344,59.61231994628906)"/>
<path d="M0 0 C4.61581142 2.18643699 6.72864085 4.49599804 9 9 C9.82885269 14.54808604 9.7240695 19.47140883 7.3125 24.5625 C4.21064779 27.8320199 1.61649202 29.75850523 -2.90234375 30.43359375 C-9.05071801 30.44150672 -13.31314296 30.4465054 -18 26 C-21.88937897 20.55860924 -21.79042609 15.48149391 -21 9 C-16.63929544 -0.20593186 -9.3488659 -1.1401056 0 0 Z " fill="#ffffff" transform="translate(141,60)"/>
<path d="M0 0 C4.61581142 2.18643699 6.72864085 4.49599804 9 9 C9.82885269 14.54808604 9.7240695 19.47140883 7.3125 24.5625 C4.21064779 27.8320199 1.61649202 29.75850523 -2.90234375 30.43359375 C-9.05071801 30.44150672 -13.31314296 30.4465054 -18 26 C-21.88937897 20.55860924 -21.79042609 15.48149391 -21 9 C-16.63929544 -0.20593186 -9.3488659 -1.1401056 0 0 Z " fill="#ffffff" transform="translate(81,60)"/>
</svg>