<svg version="1.1" xmlns="http://www.w3.org/2000/svg" width="512px" height="512px" transform="rotate(0) scale(1, 1)">
<path d="M0 0 C1.48034764 0.47550561 2.95925021 0.95551216 4.4375 1.4375 C5.26121094 1.70433594 6.08492188 1.97117188 6.93359375 2.24609375 C9 3 9 3 10 4 C10.28796978 7.49220492 10.44903734 10.98467449 10.62109375 14.484375 C10.98061574 17.820146 11.30315729 20.11484848 13 23 C16.88789187 25.58679538 21.06016568 25.08895832 25.55126953 25.02099609 C38.12696504 24.92951328 44.92449512 27.54379844 54 36 C55.07515258 36.9344207 56.15327936 37.86543042 57.234375 38.79296875 C72.10550005 51.75748069 86.55425119 69.58735025 91.375 89.1875 C92.27197291 92.12479347 92.27197291 92.12479347 94.61328125 93.9296875 C96.09159982 94.38069995 97.58507137 94.78323824 99.0859375 95.15234375 C121.36980172 101.63437932 139.79294389 119.17476669 151 139 C153.76743554 144.17249952 156.03460798 149.4754373 158 155 C158.22445801 155.6300293 158.44891602 156.26005859 158.68017578 156.90917969 C166.54406477 180.33789576 163.40012859 207.24917975 152.9140625 229.27734375 C142.11585683 250.84606739 122.75341417 268.75882438 100 277 C96.89412924 277.99115922 93.76915827 278.888574 90.625 279.75 C89.8707373 279.96100342 89.11647461 280.17200684 88.33935547 280.3894043 C74.37250839 284.00192885 59.59772927 283.13393697 45.29296875 283.09765625 C43.11436496 283.09578774 40.93576074 283.09436589 38.75715637 283.09336853 C33.0641867 283.08957741 27.37124315 283.07977677 21.67828369 283.06866455 C14.82564585 283.05656313 7.9729992 283.05203196 1.1203537 283.04621124 C-9.25311561 283.03656274 -19.6265278 283.01738247 -30 283 C-30 264.19 -30 245.38 -30 226 C-17.625 225.505 -17.625 225.505 -5 225 C-3.35 224.01 -1.7 223.02 0 222 C0.72421666 217.81727927 0.41352435 215.70849884 -1.73046875 212.03515625 C-2.54128906 211.05417969 -3.35210937 210.07320312 -4.1875 209.0625 C-4.6316626 208.51456787 -5.0758252 207.96663574 -5.53344727 207.40209961 C-6.49864151 206.21515137 -7.47153348 205.03443018 -8.45117188 203.859375 C-10.04127318 201.95045136 -11.60895574 200.02497624 -13.171875 198.09375 C-15.36738194 195.38149771 -17.56995492 192.67524491 -19.77734375 189.97265625 C-22.72842036 186.34845019 -25.62434577 182.68418524 -28.5 179 C-32.44185226 173.95146065 -36.45034762 168.96245949 -40.5 164 C-44.66979117 158.8885834 -48.80347676 153.75261248 -52.875 148.5625 C-53.32480225 147.98927002 -53.77460449 147.41604004 -54.23803711 146.82543945 C-56.22883551 144.282238 -58.20645756 141.7299312 -60.16796875 139.1640625 C-60.79316406 138.34679687 -61.41835938 137.52953125 -62.0625 136.6875 C-62.58972656 135.99011719 -63.11695313 135.29273438 -63.66015625 134.57421875 C-65.60710265 132.28669864 -66.82187411 132.02375012 -69.8125 131.625 C-76.26417777 132.38402091 -80.70259892 140.13081123 -84.625 144.9375 C-85.24109131 145.68894287 -85.85718262 146.44038574 -86.49194336 147.21459961 C-90.68678206 152.34729331 -94.81020836 157.53145917 -98.88525391 162.75952148 C-102.36721225 167.21970799 -105.9219836 171.61661531 -109.5 176 C-114.0203593 181.54022885 -118.4830411 187.11960952 -122.88427734 192.75488281 C-126.94117834 197.94473854 -131.06214598 203.08216514 -135.20532227 208.20336914 C-138.9481279 212.85321788 -140.36882754 214.97581683 -140 221 C-138.27773504 224.24849977 -138.27773504 224.24849977 -135 225 C-126.75 225.33 -118.5 225.66 -110 226 C-110 244.81 -110 263.62 -110 283 C-139.88623192 283.08032734 -139.88623192 283.08032734 -154.73254681 283.10050774 C-162.73651717 283.1115565 -170.74044549 283.12554584 -178.74438477 283.15087891 C-185.08514086 283.17093815 -191.4258651 283.18374587 -197.76665205 283.18817699 C-201.11787642 283.19076338 -204.46893822 283.19783792 -207.82014656 283.21146011 C-235.26526255 283.31851417 -260.5726093 282.26101652 -281.28125 261.80859375 C-296.46188422 246.12630064 -302.55238677 228.71405497 -302.41772461 206.99853516 C-301.90944888 186.51135852 -293.65876037 169.98089862 -279 156 C-263.86112798 141.7451497 -244.96863422 137.20078323 -224.73828125 137.625 C-218.2652111 137.91713126 -212.43397783 139.27119379 -206.27734375 141.22265625 C-202.5709197 142.10177232 -200.57130627 142.37587182 -197 141 C-195.39352421 138.48949981 -194.2685601 136.3337869 -193.125 133.625 C-184.06674189 113.9925942 -170.20487928 101.24121751 -150.14453125 93.10546875 C-147 92 -147 92 -144.59399414 91.51416016 C-139.41473808 90.38307605 -139.41473808 90.38307605 -135.37280273 87.15698242 C-134.01491307 84.82209024 -132.89350836 82.47499031 -131.8125 80 C-130.98115534 78.2705497 -130.14653006 76.54267246 -129.30859375 74.81640625 C-128.91526855 73.98383301 -128.52194336 73.15125977 -128.11669922 72.29345703 C-115.5670929 46.51929836 -91.13605936 26.08839804 -64.35058594 16.46435547 C-48.6900112 11.14724612 -31.7463194 7.58031488 -15.234375 10.71484375 C-12.03434077 11.30433305 -12.03434077 11.30433305 -9.70703125 9.70703125 C-8.76923828 8.76923828 -8.76923828 8.76923828 -7.8125 7.8125 C-7.14863281 7.16796875 -6.48476563 6.5234375 -5.80078125 5.859375 C-5.20652344 5.24578125 -4.61226563 4.6321875 -4 4 C-3.175 3.195625 -2.35 2.39125 -1.5 1.5625 C-0.7575 0.7890625 -0.7575 0.7890625 0 0 Z " fill="#ffffff" transform="translate(326,206)"/>
<path d="M0 0 C10.56 0 21.12 0 32 0 C32.99 7.425 32.99 7.425 34 15 C39.27321004 18.95490753 44.8501086 20.75056727 51 23 C51.88300781 23.3609375 52.76601563 23.721875 53.67578125 24.09375 C58.08467541 25.87799394 58.08467541 25.87799394 62.625 25.125 C65.88581621 22.20742761 68.97436021 19.15917557 72 16 C77.62303757 20.67466337 82.79741554 25.67765667 87.9375 30.875 C88.71673828 31.65875 89.49597656 32.4425 90.29882812 33.25 C92.20154085 35.16438581 94.10186171 37.08108034 96 39 C95.06409496 40.1055189 94.12620142 41.20935453 93.1875 42.3125 C92.40439453 43.23482422 92.40439453 43.23482422 91.60546875 44.17578125 C90 46 90 46 88.35644531 47.59545898 C86.30309267 49.72161768 86.11400661 51.03989992 86 54 C86.82839451 56.92724495 88.01906113 59.65943993 89.25 62.4375 C89.56324219 63.17548828 89.87648438 63.91347656 90.19921875 64.67382812 C90.81945019 66.12146374 91.4526516 67.56362122 92.09960938 68.99951172 C92.90513918 70.78923819 93.66656722 72.5986626 94.421875 74.41015625 C95.99772206 77.57871883 95.99772206 77.57871883 101 79 C104.63 79.33 108.26 79.66 112 80 C112 90.56 112 101.12 112 112 C104.575 112.99 104.575 112.99 97 114 C93.04509247 119.27321004 91.24943273 124.8501086 89 131 C88.45859375 132.32451172 88.45859375 132.32451172 87.90625 133.67578125 C86.12200606 138.08467541 86.12200606 138.08467541 86.875 142.625 C89.79257239 145.88581621 92.84082443 148.97436021 96 152 C91.32533663 157.62303757 86.32234333 162.79741554 81.125 167.9375 C80.34125 168.71673828 79.5575 169.49597656 78.75 170.29882812 C76.83561419 172.20154085 74.91891966 174.10186171 73 176 C71.8944811 175.06409496 70.79064547 174.12620142 69.6875 173.1875 C69.07261719 172.66542969 68.45773437 172.14335937 67.82421875 171.60546875 C66 170 66 170 64.40454102 168.35644531 C62.27838232 166.30309267 60.96010008 166.11400661 58 166 C55.07275505 166.82839451 52.34056007 168.01906113 49.5625 169.25 C48.82451172 169.56324219 48.08652344 169.87648437 47.32617188 170.19921875 C45.87853626 170.81945019 44.43637878 171.4526516 43.00048828 172.09960938 C41.21076181 172.90513918 39.4013374 173.66656722 37.58984375 174.421875 C34.42128117 175.99772206 34.42128117 175.99772206 33 181 C32.67 184.63 32.34 188.26 32 192 C21.44 192 10.88 192 0 192 C-0.66 187.05 -1.32 182.1 -2 177 C-7.27321004 173.04509247 -12.8501086 171.24943273 -19 169 C-19.88300781 168.6390625 -20.76601563 168.278125 -21.67578125 167.90625 C-26.08467541 166.12200606 -26.08467541 166.12200606 -30.625 166.875 C-33.88581621 169.79257239 -36.97436021 172.84082443 -40 176 C-45.62303757 171.32533663 -50.79741554 166.32234333 -55.9375 161.125 C-57.10635742 159.949375 -57.10635742 159.949375 -58.29882812 158.75 C-60.20154085 156.83561419 -62.10186171 154.91891966 -64 153 C-63.06409496 151.8944811 -62.12620142 150.79064547 -61.1875 149.6875 C-60.66542969 149.07261719 -60.14335937 148.45773438 -59.60546875 147.82421875 C-58 146 -58 146 -56.35644531 144.40454102 C-54.30309267 142.27838232 -54.11400661 140.96010008 -54 138 C-54.82839451 135.07275505 -56.01906113 132.34056007 -57.25 129.5625 C-57.56324219 128.82451172 -57.87648438 128.08652344 -58.19921875 127.32617188 C-58.81945019 125.87853626 -59.4526516 124.43637878 -60.09960938 123.00048828 C-60.90513918 121.21076181 -61.66656722 119.4013374 -62.421875 117.58984375 C-63.99772206 114.42128117 -63.99772206 114.42128117 -69 113 C-72.63 112.67 -76.26 112.34 -80 112 C-80 101.44 -80 90.88 -80 80 C-72.575 79.01 -72.575 79.01 -65 78 C-61.04509247 72.72678996 -59.24943273 67.1498914 -57 61 C-56.6390625 60.11699219 -56.278125 59.23398438 -55.90625 58.32421875 C-54.12200606 53.91532459 -54.12200606 53.91532459 -54.875 49.375 C-57.79257239 46.11418379 -60.84082443 43.02563979 -64 40 C-59.32533663 34.37696243 -54.32234333 29.20258446 -49.125 24.0625 C-48.34125 23.28326172 -47.5575 22.50402344 -46.75 21.70117188 C-44.83561419 19.79845915 -42.91891966 17.89813829 -41 16 C-39.8944811 16.93590504 -38.79064547 17.87379858 -37.6875 18.8125 C-37.07261719 19.33457031 -36.45773437 19.85664062 -35.82421875 20.39453125 C-34 22 -34 22 -32.40454102 23.64355469 C-30.27838232 25.69690733 -28.96010008 25.88599339 -26 26 C-23.07275505 25.17160549 -20.34056007 23.98093887 -17.5625 22.75 C-16.82451172 22.43675781 -16.08652344 22.12351562 -15.32617188 21.80078125 C-13.87853626 21.18054981 -12.43637878 20.5473484 -11.00048828 19.90039062 C-9.21076181 19.09486082 -7.4013374 18.33343278 -5.58984375 17.578125 C-2.42128117 16.00227794 -2.42128117 16.00227794 -1 11 C-0.67 7.37 -0.34 3.74 0 0 Z M-18 52 C-18.63421875 52.43828125 -19.2684375 52.8765625 -19.921875 53.328125 C-30.13710124 61.10669177 -36.2639544 73.74206464 -39 86 C-40.41838499 102.69781497 -38.01485546 116.26280888 -28 130 C-27.56171875 130.63421875 -27.1234375 131.2684375 -26.671875 131.921875 C-19.09077625 141.87777577 -6.1974466 148.94173276 6 151 C22.58989935 152.80405479 36.38580331 149.92518856 50 140 C50.63421875 139.56171875 51.2684375 139.1234375 51.921875 138.671875 C62.13710124 130.89330823 68.2639544 118.25793536 71 106 C72.41838499 89.30218503 70.01485546 75.73719112 60 62 C59.56171875 61.36578125 59.1234375 60.7315625 58.671875 60.078125 C50.89330823 49.86289876 38.25793536 43.7360456 26 41 C9.30218503 39.58161501 -4.26280888 41.98514454 -18 52 Z " fill="#ffffff" transform="translate(352,24)"/>
<path d="M0 0 C15.84 0 31.68 0 48 0 C48.33 6.6 48.66 13.2 49 20 C50.38888031 24.99997031 50.38888031 24.99997031 53.45849609 26.36206055 C54.46992676 26.70019775 55.48135742 27.03833496 56.5234375 27.38671875 C57.626875 27.76763672 58.7303125 28.14855469 59.8671875 28.54101562 C61.02476562 28.91935547 62.18234375 29.29769531 63.375 29.6875 C65.65425256 30.4604528 67.93292358 31.23512309 70.2109375 32.01171875 C71.22462402 32.34647217 72.23831055 32.68122559 73.28271484 33.02612305 C75.65757797 33.8772757 77.83270097 34.71112449 80 36 C80.94670668 38.27549229 81.43945782 40.50843369 81.99609375 42.90625 C82.84722374 45.17954786 82.84722374 45.17954786 85.15625 46.2734375 C88.53811981 47.13748665 91.57533415 47.13245918 95.0625 47.125 C101.42620202 47.47890998 101.42620202 47.47890998 103.87109375 49.69921875 C105.05275344 51.91125298 105.7771538 53.49762289 106 56 C104.82011552 59.47261454 102.68232086 61.3915082 100 63.8125 C96.26123051 67.42257996 94.84882037 69.90707778 94 75 C90.70572075 73.50053496 88.04897321 71.58154309 85.1875 69.375 C63.07038429 53.26860439 35.9722923 46.16062762 8.76171875 50.1171875 C-11.05486473 53.52887891 -27.43374353 61.46643885 -43 74 C-43.63035156 74.46535156 -44.26070313 74.93070312 -44.91015625 75.41015625 C-59.97037243 87.05245103 -69.34365215 106.29237413 -75 124 C-75.34160156 125.03640625 -75.68320313 126.0728125 -76.03515625 127.140625 C-80.80035764 144.78295199 -79.72149436 165.72369619 -74 183 C-73.61457031 184.16402344 -73.22914062 185.32804688 -72.83203125 186.52734375 C-68.8163919 197.66457004 -63.25094291 207.08174265 -55.85546875 216.2734375 C-53.96960678 219.04466204 -53.15723876 220.67087595 -53 224 C-53.9375 226.3125 -53.9375 226.3125 -55 228 C-55.74121094 227.86722656 -56.48242188 227.73445312 -57.24609375 227.59765625 C-66.48872442 226.0477904 -75.64753448 225.42562119 -85 225 C-85.23203125 224.04738281 -85.4640625 223.09476563 -85.703125 222.11328125 C-87.11242126 217.18445302 -89.46198283 212.75635658 -91.75 208.1875 C-95.558281 200.46771588 -98.68688013 192.82818671 -100.93457031 184.51049805 C-101.57856031 182.1417221 -101.57856031 182.1417221 -103 179 C-110.20238088 175.80530497 -110.20238088 175.80530497 -128 176 C-128 160.16 -128 144.32 -128 128 C-118.1 127.505 -118.1 127.505 -108 127 C-103.07181296 125.63619859 -103.07181296 125.63619859 -101.84082031 122.93139648 C-101.58913086 122.08649658 -101.33744141 121.24159668 -101.078125 120.37109375 C-100.7790625 119.42621094 -100.48 118.48132813 -100.171875 117.5078125 C-99.86765625 116.49460937 -99.5634375 115.48140625 -99.25 114.4375 C-96.5263488 105.91545074 -93.40832906 98.16927933 -88.79394531 90.49389648 C-86.25693695 86.13698208 -85.32868679 83.02885521 -86 78 C-87.16884356 75.78359955 -87.16884356 75.78359955 -89 74.0625 C-89.63035156 73.40378906 -90.26070312 72.74507813 -90.91015625 72.06640625 C-91.59980469 71.38449219 -92.28945312 70.70257813 -93 70 C-93.74121094 69.24589844 -94.48242188 68.49179688 -95.24609375 67.71484375 C-97.14797487 65.79262165 -99.06548615 63.88929145 -101 62 C-96.97251947 57.16701194 -92.75620587 52.61889996 -88.2890625 48.19140625 C-87.67606293 47.57982162 -87.06306335 46.968237 -86.43148804 46.33811951 C-84.49835436 44.41052441 -82.56175013 42.48646072 -80.625 40.5625 C-79.30315301 39.24567596 -77.98153628 37.92862074 -76.66015625 36.61132812 C-73.44275701 33.40487627 -70.22224319 30.20158371 -67 27 C-65.88171338 27.95106267 -64.76448675 28.90337178 -63.64770508 29.85620117 C-63.02543533 30.38638351 -62.40316559 30.91656586 -61.76203918 31.46281433 C-59.63422239 33.31910079 -57.65200989 35.28499981 -55.6875 37.3125 C-51.97374114 41.15436233 -51.97374114 41.15436233 -46.84375 42.3125 C-42.2912283 41.94237628 -39.32036321 40.29677428 -35.5 38 C-27.51132752 33.42882006 -19.29489166 30.47117612 -10.4921875 27.828125 C-9.54730469 27.5290625 -8.60242188 27.23 -7.62890625 26.921875 C-6.78400635 26.67018555 -5.93910645 26.41849609 -5.06860352 26.15917969 C-2.36380141 24.92818704 -2.36380141 24.92818704 -1 20 C-0.67 13.4 -0.34 6.8 0 0 Z " fill="#ffffff" transform="translate(176,104)"/>
<path d="M0 0 C0.85078125 0.48339844 1.7015625 0.96679688 2.578125 1.46484375 C11.61206911 7.07043857 20.37272736 14.95616897 26 24 C22.92641215 25.69522629 19.74183551 26.79920687 16.41674805 27.90185547 C-3.58185174 34.57631773 -20.28909661 45.00416828 -36 59 C-36.66773438 59.59425781 -37.33546875 60.18851562 -38.0234375 60.80078125 C-48.818338 71.01285849 -59.52934828 85.6869838 -64.31640625 99.81640625 C-66.20159946 103.38121475 -67.61521 104.19239525 -71.39428711 105.44311523 C-72.08917236 105.64751221 -72.78405762 105.85190918 -73.5 106.0625 C-74.95128911 106.54854879 -76.40052072 107.04078318 -77.84765625 107.5390625 C-78.91137451 107.90112793 -78.91137451 107.90112793 -79.99658203 108.27050781 C-93.17562158 113.06930993 -104.28704073 123.15839226 -114 133 C-131.94665658 112.81001135 -135.32351857 88.05700887 -134 62 C-132.80908565 50.37502731 -127.6954773 40.03904192 -122 30 C-121.51660156 29.14792969 -121.03320312 28.29585937 -120.53515625 27.41796875 C-108.08683412 7.39240707 -87.5775553 -5.36357223 -65 -11 C-42.40622257 -16.16565603 -19.67581782 -11.27044652 0 0 Z " fill="#ffffff" transform="translate(246,180)"/>
<path d="M0 0 C8.80288754 6.34043826 15.4186507 14.72648904 17.58203125 25.4921875 C18.92007691 37.90936834 17.85729499 48.88109459 10.39453125 59.2421875 C3.58210875 67.3274193 -4.72289951 73.55522767 -15.48876953 74.71533203 C-28.40007937 75.61089799 -39.16843729 74.04490094 -49.3515625 65.46484375 C-57.86959925 57.33325857 -62.42046403 48.68416257 -62.88867188 36.85693359 C-63.04371176 24.34263074 -60.22647828 14.71931927 -51.41796875 5.4921875 C-37.63784493 -7.66275112 -16.31305228 -10.17259803 0 0 Z " fill="#ffffff" transform="translate(390.41796875,85.5078125)"/>
</svg>