<svg id="twitter_2168336" xmlns="http://www.w3.org/2000/svg" width="22.495" height="22.495" viewBox="0 0 22.495 22.495">
  <g id="Group_8" data-name="Group 8">
    <path id="Path_22" data-name="Path 22" d="M11.248,0A11.248,11.248,0,1,0,22.5,11.248,11.26,11.26,0,0,0,11.248,0Zm5.018,8.673c0,.111.008.224.008.336a7.364,7.364,0,0,1-11.335,6.2A5.227,5.227,0,0,0,8.771,14.14a2.591,2.591,0,0,1-2.418-1.8A2.6,2.6,0,0,0,7.522,12.3,2.589,2.589,0,0,1,5.445,9.76c0-.011,0-.022,0-.033a2.578,2.578,0,0,0,1.172.323,2.593,2.593,0,0,1-.8-3.456A7.351,7.351,0,0,0,11.152,9.3a2.591,2.591,0,0,1,4.411-2.362,5.167,5.167,0,0,0,1.645-.628,2.6,2.6,0,0,1-1.14,1.433,5.147,5.147,0,0,0,1.487-.407,5.207,5.207,0,0,1-1.29,1.338Z" fill="#113f3d"/>
  </g>
</svg>
